<svg width="37" height="214" viewBox="0 0 37 214" fill="none" xmlns="http://www.w3.org/2000/svg">
<g clip-path="url(#clip0_257_5055)">
<path d="M236 188.945L27.631 0H21.7822L236 194.236V188.945Z" fill="#6E46C9"/>
<path d="M236 208.226L6.35382 0H0.519043L236 213.529V208.226Z" fill="#6E46C9"/>
<path d="M221.076 214L0 13.5198V18.8234L215.242 214H221.076Z" fill="#6E46C9"/>
<path d="M199.813 214L0 32.8135V38.1043L193.978 214H199.813Z" fill="#6E46C9"/>
<path d="M178.55 214L0 52.0947V57.3856L172.701 214H178.55Z" fill="#6E46C9"/>
<path d="M157.273 214L0 71.3757V76.6793L151.438 214H157.273Z" fill="#6E46C9"/>
<path d="M136.009 214L0 90.6697V95.9605L130.16 214H136.009Z" fill="#6E46C9"/>
<path d="M114.732 214L0 109.951V115.242L108.897 214H114.732Z" fill="#6E46C9"/>
<path d="M93.4687 214L0 129.245V134.535L87.6339 214H93.4687Z" fill="#6E46C9"/>
<path d="M72.2054 214L0 148.526V153.816L66.3566 214H72.2054Z" fill="#6E46C9"/>
<path d="M50.9281 214L0 167.807V173.11L45.0933 214H50.9281Z" fill="#6E46C9"/>
<path d="M29.6648 214L0 187.101V192.391L23.83 214H29.6648Z" fill="#6E46C9"/>
<path d="M8.40152 214L0 206.382V211.672L2.55272 214H8.40152Z" fill="#6E46C9"/>
</g>
<defs>
<clipPath id="clip0_257_5055">
<rect width="236" height="214" fill="white"/>
</clipPath>
</defs>
</svg>
