<svg width="220" height="182" viewBox="0 0 220 182" fill="none" xmlns="http://www.w3.org/2000/svg">
<path d="M213.257 109.052H99.0512C95.8794 109.052 93.3081 111.623 93.3081 114.795V174.711C93.3081 177.883 95.8794 180.454 99.0512 180.454H213.257C216.429 180.454 219 177.883 219 174.711V114.795C219 111.623 216.429 109.052 213.257 109.052Z" stroke="#A0AFC1" stroke-width="2" stroke-linecap="round" stroke-linejoin="round"/>
<path d="M1.83838 82.1532L8.15487 75.2409C13.9861 68.8655 22.6193 65.8285 31.1566 67.1595L72.9904 73.6746C75.748 74.1011 78.4173 74.9762 80.8954 76.263L103.566 88.0212" stroke="black" stroke-width="2" stroke-linecap="round" stroke-linejoin="round"/>
<path d="M213.25 109.052H99.0434C95.874 109.052 93.3003 111.626 93.3003 114.795V119.075H218.993V114.795C218.993 111.626 216.419 109.052 213.25 109.052Z" fill="#6E46C9"/>
<path d="M121.876 180.211C126.56 180.939 155.908 179.961 208.97 179.718C205.139 174.799 196.903 168.57 192.131 164.864C184.718 159.106 185.344 153.871 192.131 141.208C198.918 128.546 206.749 123.067 197.859 109.338C190.697 98.2715 167.342 93.5359 158.871 94.6315C131.281 98.1906 123.53 128.31 125.038 137.076C126.538 145.848 137.818 147.466 134.516 156.4C132.443 162.011 125.942 170.798 121.883 180.211H121.876Z" fill="black"/>
<path d="M202.61 179.968C198.558 171.938 190.792 166.305 176.703 163.253C147.892 157.018 131.443 168.283 124.604 179.475C123.759 180.865 174.247 178.982 202.61 179.968Z" fill="white"/>
<path d="M102.058 113.941C102.058 115.125 101.095 116.088 99.9113 116.088C98.7274 116.088 97.7642 115.125 97.7642 113.941C97.7642 112.757 98.7274 111.794 99.9113 111.794C101.095 111.794 102.058 112.757 102.058 113.941Z" fill="white"/>
<path d="M107.971 113.941C107.971 115.125 107.007 116.088 105.823 116.088C104.64 116.088 103.676 115.125 103.676 113.941C103.676 112.757 104.64 111.794 105.823 111.794C107.007 111.794 107.971 112.757 107.971 113.941Z" fill="white"/>
<path d="M113.875 113.941C113.875 115.125 112.912 116.088 111.728 116.088C110.544 116.088 109.581 115.125 109.581 113.941C109.581 112.757 110.544 111.794 111.728 111.794C112.912 111.794 113.875 112.757 113.875 113.941Z" fill="white"/>
<path d="M128.369 12.7061H6.74308C3.57129 12.7061 1 15.2773 1 18.4491V84.7256C1 87.8974 3.57129 90.4687 6.74308 90.4687H128.369C131.541 90.4687 134.112 87.8974 134.112 84.7256V18.4491C134.112 15.2773 131.541 12.7061 128.369 12.7061Z" stroke="#A0AFC1" stroke-width="2" stroke-linecap="round" stroke-linejoin="round"/>
<path d="M128.369 12.7061H6.74308C3.57375 12.7061 1 15.2798 1 18.4491V22.7288H134.112V18.4491C134.112 15.2798 131.538 12.7061 128.369 12.7061Z" fill="#6E46C9"/>
<path d="M9.75816 17.5965C9.75816 18.7804 8.79492 19.7436 7.61101 19.7436C6.42711 19.7436 5.46387 18.7804 5.46387 17.5965C5.46387 16.4126 6.42711 15.4492 7.61101 15.4492C8.79492 15.4492 9.75816 16.4126 9.75816 17.5965Z" fill="white"/>
<path d="M15.6629 17.5965C15.6629 18.7804 14.6997 19.7436 13.5158 19.7436C12.3319 19.7436 11.3687 18.7804 11.3687 17.5965C11.3687 16.4126 12.3319 15.4492 13.5158 15.4492C14.6997 15.4492 15.6629 16.4126 15.6629 17.5965Z" fill="white"/>
<path d="M21.5677 17.5965C21.5677 18.7804 20.6045 19.7436 19.4206 19.7436C18.2367 19.7436 17.2734 18.7804 17.2734 17.5965C17.2734 16.4126 18.2367 15.4492 19.4206 15.4492C20.6045 15.4492 21.5677 16.4126 21.5677 17.5965Z" fill="white"/>
<path d="M95.7637 88.4842L100.374 88.6166L97.4919 85.4694C96.3815 84.256 94.8668 83.4766 93.227 83.2927C91.771 83.1236 91.0063 83.6236 89.8885 85.359L84.4248 94.5435L86.6014 95.0067C88.153 95.3376 89.7708 94.8376 90.8591 93.6831L95.7637 88.4842Z" fill="white" stroke="#080717" stroke-width="2" stroke-linecap="round" stroke-linejoin="round"/>
<path d="M101.823 88.6614L106.434 88.7938L103.551 85.6465C102.441 84.4332 100.926 83.6537 99.2863 83.4699C97.8304 83.3007 96.4479 84.1611 95.9479 85.5362L91.5063 97.2944L94.5361 97.537C96.1023 97.662 97.6024 96.8531 98.3524 95.478L101.831 88.6614H101.823Z" fill="white" stroke="#080717" stroke-width="2" stroke-linecap="round" stroke-linejoin="round"/>
<path d="M107.882 88.8381L112.493 88.9705L109.61 85.8232C108.5 84.6099 106.985 83.8305 105.345 83.6466C103.889 83.4775 102.507 84.3378 102.007 85.7129L97.9844 96.471L101.014 96.7137C102.58 96.8387 104.08 96.0298 104.83 94.6547L107.882 88.8381Z" fill="white" stroke="#080717" stroke-width="2" stroke-linecap="round" stroke-linejoin="round"/>
<path d="M113.648 89.0061L118.258 89.1385L115.376 85.9912C114.265 84.7779 112.751 83.9984 111.111 83.8146C109.655 83.6455 108.272 84.5058 107.772 85.8809L104.39 95.2198L107.419 95.4624C108.986 95.5874 110.486 94.7786 111.236 93.4035L113.648 89.0061Z" fill="white" stroke="#080717" stroke-width="2" stroke-linecap="round" stroke-linejoin="round"/>
<path d="M31.5979 88.7279L26.9873 88.8603L29.8698 85.713C30.9802 84.4997 32.4948 83.7202 34.1346 83.5364C35.5906 83.3672 36.3554 83.8673 37.4731 85.6027L42.9369 94.7871L40.7603 95.2504C39.2087 95.5813 37.5909 95.0813 36.5026 93.9268L31.5979 88.7279Z" fill="white" stroke="#080717" stroke-width="2" stroke-linecap="round" stroke-linejoin="round"/>
<path d="M25.5315 88.9046L20.9209 89.0369L23.8034 85.8897C24.9138 84.6763 26.4284 83.8969 28.0682 83.713C29.5242 83.5439 30.9067 84.4042 31.4067 85.7793L35.8482 97.5375L32.8185 97.7802C31.2522 97.9052 29.7522 97.0963 29.0021 95.7212L25.524 88.9046H25.5315Z" fill="white" stroke="#080717" stroke-width="2" stroke-linecap="round" stroke-linejoin="round"/>
<path d="M19.4719 89.0813L14.8613 89.2137L17.7438 86.0664C18.8542 84.8531 20.3692 84.0736 22.009 83.8898C23.465 83.7207 24.8475 84.581 25.3475 85.9561L29.3696 96.7142L26.3399 96.9569C24.7737 97.0819 23.2736 96.273 22.5236 94.8979L19.4719 89.0813Z" fill="white" stroke="#080717" stroke-width="2" stroke-linecap="round" stroke-linejoin="round"/>
<path d="M13.7141 89.2493L9.10352 89.3816L11.986 86.2343C13.0964 85.021 14.6114 84.2416 16.2512 84.0578C17.7072 83.8886 19.0897 84.749 19.5897 86.1241L22.9724 95.4629L19.9427 95.7056C18.3764 95.8306 16.8763 95.0217 16.1263 93.6466L13.7141 89.2493Z" fill="white" stroke="#080717" stroke-width="2" stroke-linecap="round" stroke-linejoin="round"/>
<path d="M93.4983 53.2047C99.2027 41.0549 93.9775 26.5814 81.8277 20.8771C69.6779 15.1728 55.2044 20.3978 49.5 32.5475C43.7957 44.6973 49.0207 59.1711 61.1705 64.8754C73.3203 70.5797 87.794 65.3545 93.4983 53.2047Z" fill="#080717"/>
<path d="M73.564 70.4899C72.6081 70.3943 71.6817 70.1884 70.7846 69.8943L64.6738 83.6893C58.8646 85.3512 52.7025 82.6231 50.0258 77.211L46.0694 69.2031L52.1877 55.3933C51.3421 55.533 50.4889 55.5036 49.6653 55.2462C45.8121 54.0549 44.0694 48.7237 45.8637 43.4587C47.5256 38.598 51.7979 35.539 55.3937 36.6273C57.9968 37.4142 59.6365 40.0834 59.9013 43.341C62.4235 33.7815 69.8652 27.1487 77.9025 27.9723C87.0649 28.9062 93.5211 39.1863 92.3225 50.9224C91.1239 62.6659 82.7264 71.4238 73.564 70.4899Z" fill="white" stroke="#080717" stroke-width="2" stroke-linecap="round" stroke-linejoin="round"/>
<path d="M59.5562 39.5032C59.6959 39.6503 59.8281 39.8047 59.9752 39.9518C68.0345 48.0847 82.9473 46.5478 93.2789 36.5177C93.3966 36.4074 93.5068 36.2898 93.6171 36.1721C91.4552 32.6792 88.3888 29.9879 84.565 28.5981C75.6821 25.3626 65.5345 30.1202 59.5562 39.5032Z" fill="#080717"/>
<path d="M70.3506 69.7036C65.762 67.6152 62.2838 62.9751 60.7764 57.188" stroke="#080717" stroke-width="2" stroke-linecap="round" stroke-linejoin="round"/>
<path d="M87.1976 51.8202C86.7343 52.1953 87.2122 53.5336 88.2564 54.8131C89.3006 56.0926 90.5213 56.8133 90.9845 56.4382C91.4478 56.0632 90.9699 54.7249 89.9257 53.4454C88.8815 52.1732 87.6608 51.4452 87.1976 51.8202Z" fill="#080717"/>
<path d="M72.7336 48.9089C72.6233 49.6369 74.1746 50.4752 76.1895 50.7841C78.2043 51.0929 79.9397 50.7399 80.05 50.0119C80.1603 49.2839 78.609 48.4456 76.5941 48.1368C74.5719 47.8353 72.8439 48.1809 72.7336 48.9089Z" fill="#080717"/>
<path d="M83.2561 53.4165L82.506 58.1889C82.3663 59.0713 81.7706 59.7552 81.0059 60.0567" stroke="#080717" stroke-width="2" stroke-linecap="round" stroke-linejoin="round"/>
<path d="M76.3218 61.3716C76.3218 61.3716 76.7336 63.2614 79.447 62.7982" stroke="#080717" stroke-width="2" stroke-linecap="round" stroke-linejoin="round"/>
<path d="M52.9746 39.0254C52.9746 39.0254 57.8645 40.827 55.5555 46.4229" stroke="#080717" stroke-width="2" stroke-linecap="round" stroke-linejoin="round"/>
<path d="M86.249 58.4605C86.0504 59.3061 86.3299 60.0929 86.8741 60.2253C87.4182 60.3576 88.0284 59.7767 88.227 58.9311C88.4255 58.0854 88.146 57.2986 87.6019 57.1663C87.0577 57.0339 86.4475 57.6148 86.249 58.4605Z" fill="#080717"/>
<path d="M75.1596 54.1148C74.9611 54.9604 75.2406 55.7472 75.7847 55.8796C76.3289 56.012 76.9391 55.431 77.1376 54.5854C77.3362 53.7398 77.0567 52.9529 76.5125 52.8206C75.9684 52.6882 75.3581 53.2691 75.1596 54.1148Z" fill="#080717"/>
<path d="M61.2616 30.8109C69.7698 30.8109 76.6672 23.9136 76.6672 15.4054C76.6672 6.89722 69.7698 0 61.2616 0C52.7534 0 45.856 6.89722 45.856 15.4054C45.856 23.9136 52.7534 30.8109 61.2616 30.8109Z" fill="#080717"/>
<path d="M176.372 134.759L179.064 165.746C175.468 169.482 171.151 171.725 166.445 171.886C161.739 172.048 157.283 170.099 153.437 166.614L152.451 137.744" fill="white"/>
<path d="M176.372 134.759L179.064 165.746C175.468 169.482 171.151 171.725 166.445 171.886C161.739 172.048 157.283 170.099 153.437 166.614L152.451 137.744" stroke="black" stroke-width="2" stroke-linecap="round" stroke-linejoin="round"/>
<path d="M167.254 136.855C164.71 141.517 166.423 147.356 171.085 149.9C175.747 152.445 181.586 150.731 184.13 146.069C186.674 141.407 184.961 135.568 180.299 133.024C175.637 130.48 169.798 132.193 167.254 136.855Z" fill="white"/>
<path d="M157.938 143.333C157.938 143.333 139.583 145.186 137.215 136.134C136.149 132.038 139.017 125.273 143.73 117.78C143.9 117.515 139.532 116.552 141.774 114.279C148.826 107.146 160.496 99.7636 170.321 98.0576C170.321 98.0576 161.041 126.773 172.769 134.545" fill="white"/>
<path d="M157.938 143.333C157.938 143.333 139.583 145.186 137.215 136.134C136.149 132.038 139.017 125.273 143.73 117.78C143.9 117.515 139.532 116.552 141.774 114.279C148.826 107.146 160.496 99.7636 170.321 98.0576C170.321 98.0576 161.041 126.773 172.769 134.545" stroke="black" stroke-width="2" stroke-linecap="round" stroke-linejoin="round"/>
<path d="M168.872 99.0874C162.629 109.588 161.732 123.082 166.519 134.318" stroke="black" stroke-width="2" stroke-linecap="round" stroke-linejoin="round"/>
<path d="M180.689 139.627C178.005 138.914 175.063 140.958 173.607 143.061" stroke="black" stroke-width="2" stroke-linecap="round" stroke-linejoin="round"/>
<path d="M156.621 127.605L146.665 126.267C146.665 126.267 151.128 140.9 156.621 127.605Z" stroke="black" stroke-width="2" stroke-linecap="round" stroke-linejoin="round"/>
<path d="M154.327 112.081C153.172 112.809 152.657 114.081 153.187 114.912C153.716 115.743 155.077 115.824 156.231 115.096C157.386 114.368 157.901 113.096 157.371 112.265C156.849 111.434 155.481 111.353 154.327 112.081Z" fill="black"/>
<path d="M161.07 112.802C161.077 111.493 160.798 110.177 160.253 108.986" stroke="black" stroke-width="2" stroke-linecap="round" stroke-linejoin="round"/>
<path d="M86.8589 162.409C86.6236 162.335 86.3955 162.254 86.1602 162.181" stroke="#080717" stroke-width="2" stroke-miterlimit="10"/>
<path d="M84.7706 161.703C61.6808 153.438 44.5543 132.635 41.5835 107.501" stroke="#080717" stroke-width="2" stroke-miterlimit="10"/>
<path d="M41.5028 106.772C41.4734 106.53 41.4513 106.287 41.4292 106.044" stroke="#080717" stroke-width="2" stroke-miterlimit="10"/>
<path d="M106.971 33.8403C107.213 33.8403 107.463 33.8403 107.706 33.8403" stroke="#080717" stroke-width="2" stroke-miterlimit="10"/>
<path d="M109.154 33.8774C120.537 34.2451 131.185 37.5101 140.399 42.9442C156.511 52.4522 168.217 68.6298 171.725 87.6752" stroke="#080717" stroke-width="2" stroke-miterlimit="10"/>
<path d="M171.857 88.3877C171.902 88.6304 171.938 88.873 171.975 89.1157" stroke="#080717" stroke-width="2" stroke-miterlimit="10"/>
<path d="M167.615 68.3353C173.622 62.3277 173.622 52.5875 167.614 46.5799C161.607 40.5723 151.867 40.5723 145.859 46.5799C139.852 52.5874 139.852 62.3276 145.859 68.3352C151.867 74.3428 161.607 74.3429 167.615 68.3353Z" fill="#6E46C9"/>
<path d="M56.9899 147.319C64.8426 144.076 68.5793 135.081 65.3363 127.229C62.0932 119.376 53.0984 115.639 45.2457 118.882C37.393 122.125 33.6559 131.12 36.8989 138.973C40.142 146.826 49.1372 150.562 56.9899 147.319Z" fill="#6E46C9"/>
<path d="M151.121 50.76C153.783 47.1568 158.856 46.3921 162.46 49.054C166.063 51.716 166.827 56.7898 164.166 60.393C162.276 62.952 159.165 64.0698 156.231 63.555L155.187 64.9669L149.393 60.6872L150.437 59.2753C149.076 56.6207 149.231 53.319 151.121 50.76Z" stroke="white" stroke-width="2"/>
<path d="M154.305 67.681L147.054 62.3276" stroke="white" stroke-width="2"/>
<path d="M152.819 62.0987L157.106 56.3042" stroke="white" stroke-width="2"/>
<path d="M158.555 57.3713L155.658 55.2314" stroke="white" stroke-width="2"/>
<path d="M161.261 58.2526C162.739 56.2525 162.313 53.4287 160.312 51.9507" stroke="white" stroke-width="2"/>
<path d="M44.4957 126.501C47.1577 122.898 52.2315 122.133 55.8347 124.795C59.4378 127.457 60.2025 132.531 57.5405 136.134C55.6507 138.693 52.5402 139.811 49.6061 139.296L48.562 140.708L42.7676 136.428L43.8117 135.017C42.4513 132.362 42.6059 129.06 44.4957 126.501Z" stroke="white" stroke-width="2"/>
<path d="M47.6796 143.422L40.4292 138.068" stroke="white" stroke-width="2"/>
<path d="M46.1943 137.839L50.4814 132.045" stroke="white" stroke-width="2"/>
<path d="M51.9299 133.112L49.0327 130.972" stroke="white" stroke-width="2"/>
<path d="M54.6358 133.994C56.1138 131.994 55.6876 129.17 53.6875 127.692" stroke="white" stroke-width="2"/>
</svg>
