<svg width="126" height="78" viewBox="0 0 126 78" fill="none" xmlns="http://www.w3.org/2000/svg">
<path d="M117.648 69.8443C99.9939 51.8185 83.4611 32.8767 61.28 20.5559C43.4113 10.6484 24.5399 4.29058 3.8566 4.33825C2.58104 4.33268 0.714258 4.74772 0.535022 2.98628C0.336943 1.0033 2.3053 0.941772 3.68015 0.778954C8.06552 0.289449 12.4367 0.622081 16.7941 1.09062C46.3846 4.29186 71.4626 17.2765 93.5211 36.6678C102.334 44.3958 110.488 52.7985 117.621 62.8959C116.569 56.8594 115.484 51.4236 114.746 45.9542C114.424 43.5607 113.562 40.0005 116.943 39.5329C120.382 39.0437 119.83 42.749 120.297 44.9239C121.888 52.5523 123.394 60.2132 124.843 67.8959C125.124 69.3245 125.263 70.8073 125.158 72.2517C124.893 76.1095 122.532 77.8884 118.71 77.2819C118.224 77.2052 117.737 77.1285 117.276 76.9445C109.573 73.8587 101.935 70.6833 94.6392 66.6916C93.5719 66.1168 91.8757 65.5196 92.4327 63.8052C92.9121 62.3163 94.5472 62.8388 95.6584 62.8415C101.775 62.8704 107.351 64.9997 112.878 67.3436C114.51 68.0305 116.012 69.061 117.573 69.9053L117.648 69.8443Z" fill="#6E46C9"/>
</svg>
