<svg width="540" height="466" viewBox="0 0 540 466" fill="none" xmlns="http://www.w3.org/2000/svg">
<path d="M434.912 208.583L449.258 251.273L471.191 224.876C477.553 217.226 480.328 207.212 478.814 197.378L473.714 164.197L434.912 208.601V208.583Z" fill="#080717"/>
<path d="M392.182 175.507L347.307 172.35L367.312 144.455C373.115 136.372 382.09 131.157 391.984 130.147L425.343 126.737L392.182 175.507Z" fill="#080717"/>
<path d="M404.449 216.822L391.845 207.066L436.424 149.341C437.097 148.47 438.336 148.311 439.205 148.985L448.673 156.313C449.542 156.986 449.701 158.226 449.029 159.097L404.449 216.822Z" fill="#080717"/>
<path fill-rule="evenodd" clip-rule="evenodd" d="M389.1 175.67C398.021 179.549 406.635 184.438 414.637 190.627L414.655 190.645C422.657 196.834 429.542 203.943 435.543 211.63C457.17 195.824 477.841 175.904 496.134 152.231C531.746 106.113 536.81 73.8881 540 28.3291C496.764 42.8899 466.883 55.899 431.271 102.017C412.979 125.69 398.94 150.734 389.1 175.67ZM476.221 110.876C469.012 105.301 467.697 94.9441 473.266 87.7269C478.835 80.5096 489.179 79.1925 496.388 84.7678C503.596 90.3431 504.912 100.7 499.343 107.917C493.775 115.134 483.43 116.452 476.221 110.876Z" fill="#6E46C9"/>
<path d="M272.495 464.11L200.803 423.297C193.882 419.345 194.639 409.115 202.082 406.246L323.048 359.658C325.121 358.865 327.409 358.81 329.518 359.55L405.445 385.803C413.393 388.546 414.06 399.552 406.509 403.233L281.327 464.363C278.533 465.734 275.235 465.626 272.514 464.092L272.495 464.11Z" fill="#080717"/>
<path d="M204.443 415.846L273.847 453.628" stroke="white" stroke-width="2" stroke-linecap="round" stroke-linejoin="round"/>
<path d="M153.153 255.892C237.737 255.892 306.306 235.98 306.306 211.416C306.306 186.852 237.737 166.94 153.153 166.94C68.5689 166.94 0 186.852 0 211.416C0 235.98 68.5689 255.892 153.153 255.892Z" fill="black"/>
<path d="M356.894 326.785L158.379 165.894C157.694 165.335 156.973 164.83 156.252 164.343L151.26 157.991C144.808 149.818 134.987 145.036 124.57 145.036H84.6324C71.6924 145.036 59.8875 152.38 54.1565 164L19.9688 233.34C35.1975 241.116 58.2478 247.431 86.0201 251.365L171.356 370.883L174.185 358.27L189.72 377.107C194.64 383.08 201.741 386.147 208.914 386.147C211.401 386.147 213.888 385.75 216.303 385.01C217.276 387.627 218.393 390.423 219.709 393.22C224.304 403.108 229.314 409.495 234.577 412.183C236.343 413.086 238.127 413.555 240.02 413.609L241.516 413.663L242.327 414.908C243.03 415.972 244.021 416.839 245.264 417.488C249.824 419.816 256.348 418.877 256.42 418.877L257.754 417.308L259.629 418.029C263.648 419.635 268.513 417.181 270.532 415.666L262.98 364.08L268.802 372.723C272.172 377.992 276.353 385.137 281.183 388.312C281.814 388.727 282.445 389.106 283.094 389.431C291.258 393.599 299.638 390.477 299.728 390.441C299.35 389.629 290.464 370.72 279.633 353.832C277.614 350.692 274.821 348.184 271.325 346.416C260.115 340.696 243.174 342.771 228.792 346.362C228.558 346.037 228.323 345.712 228.071 345.388L154.216 255.839C166.129 255.821 177.699 255.388 188.819 254.613L288.176 348.726L287.617 334.688L291.582 337.9L325.589 365.452C330.203 369.187 335.736 370.991 341.233 370.991C348.478 370.991 355.669 367.833 360.589 361.753C369.24 351.071 367.582 335.374 356.913 326.731L356.894 326.785Z" fill="white" stroke="#080717" stroke-width="2" stroke-linecap="round" stroke-linejoin="round"/>
<path d="M300.377 390.262C300.377 390.262 290.681 393.979 281.85 388.133C273.344 382.503 266.009 367.022 261.359 361.068" stroke="#080717" stroke-width="2" stroke-linecap="round" stroke-linejoin="round"/>
<path d="M260.259 354.917L271.216 415.487C271.216 415.487 262.458 422.055 257.195 415.542" stroke="#080717" stroke-width="2" stroke-linecap="round" stroke-linejoin="round"/>
<path d="M242.923 357.477L257.088 418.68C257.088 418.68 245.607 420.358 242.526 413.934C239.444 407.511 226.252 363.829 226.252 363.829" stroke="#080717" stroke-width="2" stroke-linecap="round" stroke-linejoin="round"/>
<path d="M212.824 371.536C212.824 371.536 223.205 414.911 242.057 413.414" stroke="#080717" stroke-width="2" stroke-linecap="round" stroke-linejoin="round"/>
<path d="M289.924 436.954L338.908 326.241C340.169 323.372 342.531 321.117 345.468 319.998L456.936 277.074C466.776 273.285 476.274 283.317 471.949 292.952L428.695 389.338C427.56 391.864 425.577 393.903 423.108 395.112L305.891 452.345C295.997 457.18 285.455 447.004 289.924 436.936V436.954Z" fill="#080717"/>
<path d="M345.217 330.066L289.223 451.947" stroke="white" stroke-width="2" stroke-linecap="round" stroke-linejoin="round"/>
<path d="M400.922 371.801C397.389 377.917 390.991 380.84 386.63 378.314C382.268 375.788 381.584 368.787 385.116 362.653C388.648 356.536 395.047 353.613 399.408 356.139C403.769 358.665 404.454 365.666 400.922 371.801Z" stroke="white" stroke-width="2" stroke-linecap="round" stroke-linejoin="round"/>
<path d="M101.051 178.776L154.523 255.694" stroke="black" stroke-width="2" stroke-linecap="round" stroke-linejoin="round"/>
<path d="M170.311 237.433L188.837 254.664" stroke="#080717" stroke-width="2" stroke-linecap="round" stroke-linejoin="round"/>
<path d="M179.772 360.362C179.772 360.362 191.342 312.945 211.689 326.639C210.986 317.149 189.233 315.056 176.04 339.973C167.678 355.779 165.642 371.386 172.779 375.5C176.258 377.521 181.16 376.312 186.296 372.794L179.772 360.362Z" fill="#080717"/>
<path d="M296.612 337.069C296.612 337.069 308.182 292.286 328.529 305.223C327.826 296.273 306.073 294.27 292.881 317.817C284.519 332.756 282.482 347.48 289.619 351.377C293.097 353.272 297.999 352.153 303.135 348.815L296.612 337.069Z" fill="#080717"/>
<path d="M80.0902 143.752C85.7492 128.74 87.4075 105.608 77.1889 70.1717C57.9952 3.61048 114.494 115.207 114.494 115.207C114.134 119.123 110.17 129.028 124.011 146.458L117.793 154.776L80.0902 143.752Z" fill="white"/>
<path d="M80.0902 143.752C85.7492 128.74 87.4075 105.608 77.1889 70.1717C57.9952 3.61048 114.494 115.207 114.494 115.207C114.134 119.123 110.17 129.028 124.011 146.458" stroke="black" stroke-width="2" stroke-linecap="round" stroke-linejoin="round"/>
<path d="M116.08 36.7215C116.08 36.7215 133.797 102.308 131.075 117.826C128.354 133.343 115.883 138.196 98.5993 119.052C65.4204 82.2805 63.2394 50.9576 71.2773 44.6786C79.3153 38.3995 100.816 15.4847 116.08 36.7215Z" fill="white"/>
<path d="M98.8165 48.3222C109.432 48.8996 126.481 53.0315 134.41 25.0104C142.34 -3.01059 118.136 -5.91553 107.773 9.31289C97.4103 24.5413 99.1585 30.8745 106.007 23.6392C112.855 16.4039 99.0141 -1.72951 89.6065 12.3081C80.1989 26.3456 77.928 46.157 83.1905 44.5331C88.453 42.8912 69.0076 23.17 63.5649 33.5268C58.1222 43.8836 55.2929 58.3181 63.2587 61.8365C71.2245 65.3549 78.2531 49.3868 71.2965 55.5575C64.3399 61.7283 65.223 90.9943 75.3515 94.2962C85.48 97.58 84.6865 90.056 75.1887 82.3516C65.691 74.6472 75.6576 55.6477 81.7491 72.4098C82.2717 73.8533 86.1464 83.362 86.1464 83.362L93.1573 88.0713C93.1573 88.0713 91.1385 68.711 86.1103 62.1613C74.7743 47.402 75.0267 47.0231 98.7981 48.3222H98.8165Z" fill="black"/>
<path d="M115.991 155.588L115.415 170.527L76.3061 144.96L75.9277 141.279L115.991 155.588Z" fill="white" stroke="black" stroke-width="2" stroke-linecap="round" stroke-linejoin="round"/>
<path d="M123.993 141.101L129.346 163.944L117.162 155.463L123.993 141.101Z" fill="white" stroke="black" stroke-width="2" stroke-linecap="round" stroke-linejoin="round"/>
<path d="M118.784 47.1152C123.632 66.241 133.13 106.17 131.076 117.826C128.354 133.343 115.883 138.197 98.5996 119.053" stroke="black" stroke-width="2" stroke-linecap="round" stroke-linejoin="round"/>
<path d="M114.908 69.5413L121.432 99.4749L117.216 99.6192" stroke="#080717" stroke-width="2" stroke-linecap="round" stroke-linejoin="round"/>
<path d="M122.154 79.8457C122.262 80.9644 123.271 81.7764 124.389 81.6501C125.506 81.5238 126.317 80.5314 126.191 79.4127C126.065 78.2941 125.073 77.4821 123.956 77.6084C122.838 77.7347 122.027 78.7271 122.154 79.8457Z" fill="black"/>
<path d="M120.441 73.0434C120.441 73.0434 120.946 69.507 127.722 71.8526" stroke="black" stroke-width="2" stroke-linecap="round" stroke-linejoin="round"/>
<path d="M105.357 81.5955C105.465 82.7142 106.474 83.5261 107.591 83.3998C108.708 83.2735 109.519 82.2812 109.393 81.1625C109.267 80.0438 108.276 79.2319 107.159 79.3582C106.042 79.4664 105.231 80.4768 105.357 81.5955Z" fill="black"/>
<path d="M103.645 74.8108C103.645 74.8108 104.149 71.2743 110.926 73.6199" stroke="black" stroke-width="2" stroke-linecap="round" stroke-linejoin="round"/>
<path d="M102.492 107.685C102.492 107.685 104.763 113.116 108.547 114.144" stroke="#080717" stroke-width="2" stroke-linecap="round" stroke-linejoin="round"/>
<path d="M374.52 264.337C377.854 256.867 382.215 249.109 387.711 241.332" stroke="#1D1D1B" stroke-width="2" stroke-miterlimit="10"/>
<path d="M369.527 277.599C370.266 275.199 371.095 272.764 372.05 270.274" stroke="#1D1D1B" stroke-width="2" stroke-miterlimit="10"/>
<path d="M358.426 257.121C364.211 244.852 371.726 232.149 381.134 219.447" stroke="#1D1D1B" stroke-width="2" stroke-miterlimit="10"/>
<path d="M352.676 270.616C353.613 268.144 354.64 265.654 355.721 263.128" stroke="#1D1D1B" stroke-width="2" stroke-miterlimit="10"/>
<path d="M348.352 283.358C349.054 280.977 349.829 278.577 350.677 276.141" stroke="#1D1D1B" stroke-width="2" stroke-miterlimit="10"/>
</svg>
