<svg width="542" height="458" viewBox="0 0 542 458" fill="none" xmlns="http://www.w3.org/2000/svg">
<path d="M138.009 289.861C158.952 282.973 165.368 245.67 152.339 206.542C139.31 167.414 111.77 141.277 90.8267 148.164C69.8837 155.052 63.4684 192.355 76.4974 231.483C89.5264 270.611 117.066 296.748 138.009 289.861Z" fill="#080717"/>
<path d="M421.596 269.534C408.441 266.742 403.582 237.361 410.755 203.891C417.927 170.421 434.403 145.556 447.574 148.332C460.745 151.107 465.587 180.504 458.415 213.975C451.243 247.445 434.767 272.309 421.596 269.534Z" fill="#080717"/>
<path d="M320.096 338.28C325.979 337.919 328.771 332.549 326.342 326.209L253.728 125.717C252.125 121.053 248.109 116.536 244.788 115.649L4.76716 74.6903C1.44547 74.3783 0.0571136 79.2067 1.67664 85.4639L74.9025 357.397C77.3813 366.265 84.2726 372.325 90.2219 370.962L320.112 338.297L320.096 338.28Z" stroke="#080717" stroke-width="2" stroke-linecap="round" stroke-linejoin="round"/>
<path d="M26.6626 101.231C27.555 104.549 26.5302 107.127 24.3984 106.963C22.2666 106.815 19.8207 103.974 18.9448 100.624C18.0689 97.2734 19.0772 94.695 21.1925 94.8756C23.3243 95.0563 25.7702 97.9139 26.6461 101.231H26.6626Z" fill="black"/>
<path d="M37.9828 102.184C38.8587 105.469 37.8508 107.982 35.719 107.818C33.5872 107.653 31.1413 104.829 30.2654 101.527C29.3896 98.21 30.3813 95.6809 32.5131 95.878C34.6449 96.075 37.0904 98.9162 37.9663 102.201L37.9828 102.184Z" fill="black"/>
<path d="M49.3037 103.234C50.1796 106.486 49.1713 108.949 47.056 108.769C44.9242 108.588 42.4787 105.78 41.6028 102.511C40.727 99.2433 41.7348 96.747 43.8667 96.9605C45.9985 97.174 48.4444 99.9823 49.3202 103.234H49.3037Z" fill="black"/>
<path d="M490.524 329.183C495.184 331.187 500.01 327.048 501.332 319.904L540.762 106.93C541.638 102.233 540.002 98.5873 537.127 98.8172L391.122 110.921C388.246 111.118 385.437 113.877 384.858 117.063L358.252 261.488C357.343 266.398 360.45 272.113 365.159 274.183L490.508 329.167L490.524 329.183Z" stroke="#080717" stroke-width="2" stroke-linecap="round" stroke-linejoin="round"/>
<path d="M401.78 123.766C401.433 125.605 399.698 127.133 397.863 127.166C396.045 127.198 394.839 125.77 395.17 123.98C395.5 122.173 397.252 120.646 399.086 120.58C400.921 120.498 402.127 121.943 401.78 123.766Z" fill="black"/>
<path d="M411.48 123.454C411.133 125.342 409.365 126.902 407.547 126.952C405.73 126.985 404.523 125.523 404.87 123.667C405.217 121.811 406.969 120.251 408.803 120.169C410.638 120.087 411.827 121.565 411.48 123.454Z" fill="black"/>
<path d="M421.182 123.141C420.819 125.079 419.05 126.689 417.232 126.738C415.414 126.771 414.225 125.26 414.572 123.355C414.919 121.45 416.687 119.84 418.521 119.758C420.356 119.676 421.546 121.203 421.182 123.141Z" fill="black"/>
<path d="M326.36 239.183H115.177C102.816 239.183 91.4625 232.367 85.7115 221.495L83.3319 217.012C72.4414 196.45 77.3163 171.126 95.065 156H326.36V239.183Z" fill="#A0AFC1"/>
<path d="M419.151 239.183H288.746V156H434.438C442.948 156 449.988 162.569 450.517 171.011L451.443 185.791C452.352 200.227 448.766 214.581 441.147 226.915C436.454 234.535 428.108 239.166 419.118 239.166L419.151 239.183Z" fill="#6E46C9"/>
<path d="M200.019 250.941L225.7 229.394L209.323 215.45L187.095 236.702C183.46 240.167 183.129 245.833 186.319 249.709C189.74 253.848 195.904 254.406 200.002 250.957L200.019 250.941Z" fill="#6E46C9"/>
<path d="M214.925 263.438L240.606 241.891L224.229 227.948L202.002 249.2C198.366 252.665 198.036 258.331 201.225 262.207C204.646 266.345 210.81 266.904 214.908 263.455L214.925 263.438Z" fill="#6E46C9"/>
<path d="M232.228 275.772L255.81 258.15L240.028 237.802L218.61 260.745C215.14 264.473 214.958 270.172 218.197 274.097C221.668 278.301 227.865 279.04 232.228 275.772Z" fill="#6E46C9"/>
<path d="M246.24 283.146L261.08 276.166L251.131 256.984L237.134 269.646C233.961 272.52 233.531 277.316 236.126 280.699C238.489 283.786 242.703 284.805 246.223 283.146H246.24Z" fill="#6E46C9"/>
<path d="M355.197 160.416C343.58 163.29 331.416 163.208 319.832 160.12L293.44 153.091C285.656 151.022 277.344 153.042 271.411 158.462L209.01 215.433L260.769 276.461L326.359 244.699L355.181 237.424V160.432L355.197 160.416Z" fill="#6E46C9"/>
<path d="M302.496 259.842L307.256 256.18L312.676 236.669C313.238 234.649 314.726 233.007 316.692 232.251C321.105 230.543 325.847 233.811 325.781 238.508L325.484 262.404C325.385 270.402 317.733 276.15 309.966 274.081L302.133 271.995L302.513 259.858L302.496 259.842Z" fill="#A0AFC1"/>
<path d="M286.218 264.457L291.391 243.14C292.085 238.738 296.2 235.684 300.662 236.291C304.644 236.833 307.652 240.151 307.784 244.158L308.759 275.477C309.007 283.294 300.546 288.369 293.687 284.509L285.623 279.96L286.202 264.457H286.218Z" fill="#A0AFC1"/>
<path d="M269.066 272.389L256.209 278.4L271.743 288.172C277.792 291.884 285.609 287.696 285.807 280.634L286.517 256.016C286.666 251.089 282.055 247.377 277.246 248.527C274.206 249.249 271.925 251.779 271.545 254.866L269.066 272.389Z" fill="#A0AFC1"/>
<path d="M269.065 271.815L217.604 208.668" stroke="#0B0B16" stroke-width="2" stroke-linecap="round" stroke-linejoin="round"/>
<path d="M202.002 249.183L230.278 224.548" stroke="#0B0B16" stroke-width="2" stroke-linecap="round" stroke-linejoin="round"/>
<path d="M218.594 260.746L244.308 241.794" stroke="#0B0B16" stroke-width="2" stroke-linecap="round" stroke-linejoin="round"/>
<path d="M234.461 272.686L257.961 258.25" stroke="#0B0B16" stroke-width="2" stroke-linecap="round" stroke-linejoin="round"/>
<path d="M307.85 253.502L308.445 267.544" stroke="#0B0B16" stroke-width="2" stroke-linecap="round" stroke-linejoin="round"/>
<path d="M286.218 264.457L285.805 280.634" stroke="#0B0B16" stroke-width="2" stroke-linecap="round" stroke-linejoin="round"/>
<path d="M315.008 247.41L320.842 245.883L333.5 230.018C334.806 228.376 336.822 227.44 338.921 227.505C343.647 227.637 346.738 232.498 344.837 236.801L335.169 258.676C331.93 266.001 322.626 268.317 316.297 263.39L309.918 258.43L315.025 247.41H315.008Z" fill="#A0AFC1"/>
<path d="M326.309 240.529L325.797 264.818" stroke="#0B0B16" stroke-width="2" stroke-linecap="round" stroke-linejoin="round"/>
<path d="M322.146 171.881L276.832 150.58C262.107 143.649 245.433 141.941 229.585 145.702L201.573 152.37C187.047 155.819 167.646 161.583 152.822 160.467L157.285 229.887C165.861 231.349 174.29 233.697 182.42 236.932L186.039 237.901L236.724 190.439C245.615 181.11 255.927 175.724 268.602 178.286L299.951 184.625C307.289 186.103 314.924 184.691 321.204 180.651L322.674 179.698C325.649 177.793 325.368 173.359 322.162 171.848L322.146 171.881Z" fill="#A0AFC1"/>
<path d="M268.683 308.225C253.43 327.243 238.193 346.244 222.973 365.229C238.457 406.336 267.493 438.558 303.09 455.999C327.3 428.754 351.543 401.491 375.786 374.229C330.869 365.525 292.744 341.498 268.683 308.225Z" fill="white" stroke="black" stroke-width="2"/>
<path d="M296.529 432.76C305.8 422.2 315.088 411.623 324.375 401.063" stroke="#1D1D1B" stroke-width="2" stroke-miterlimit="10"/>
<path d="M269.51 412.118C282.251 397.272 294.992 382.409 307.734 367.546" stroke="#1D1D1B" stroke-width="2" stroke-miterlimit="10"/>
<path d="M257.66 399.635C267.063 388.5 276.483 377.382 285.886 366.247" stroke="#1D1D1B" stroke-width="2" stroke-miterlimit="10"/>
<path d="M438.732 321.941L448.07 341.583" stroke="#282D33" stroke-width="2"/>
<path d="M342.635 370.094L442.566 320.184C444.681 319.215 447.805 321.383 449.54 325.045L452.68 331.664C454.415 335.31 454.101 339.054 451.986 340.023L352.054 389.933" fill="#1D1D1B"/>
<path d="M439.262 321.694L448.681 341.533L451.986 340.022C454.102 339.053 454.416 335.309 452.681 331.663L449.541 325.044C447.805 321.398 444.682 319.214 442.567 320.183L439.262 321.694Z" fill="#6E46C9"/>
<path d="M333.084 386.532L342.388 373.36L349.345 387.977L333.084 386.532Z" fill="white"/>
<path d="M342.106 376.613L346.601 386.089L336.074 385.153L342.106 376.629M342.668 370.109L330.092 387.912L352.071 389.883L342.668 370.126V370.109Z" fill="#080717"/>
<path d="M340.85 388.866L336.256 379.192L330.092 387.913L340.85 388.866Z" fill="#1D1D1B"/>
<path d="M430.408 19.0472L468.498 5.38216C476.149 2.63726 484.614 6.57943 487.379 14.192L501.129 52.0443C503.891 59.6477 499.925 68.0602 492.265 70.8085L454.176 84.4735C446.525 87.2184 438.059 83.2763 435.294 75.6637L421.544 37.8114C418.781 30.208 422.748 21.7954 430.408 19.0472Z" fill="#6E46C9"/>
<path d="M449.803 55.6109L463.259 60.5975C463.729 58.971 465.003 56.6042 467.943 54.2083C471.569 51.2573 477.734 50.3321 480.282 40.4174C483.251 28.8372 471.109 23.0324 469.913 22.5844C469.913 22.5844 469.903 22.5844 469.874 22.565C469.854 22.565 469.844 22.5552 469.844 22.5552C468.414 22.0293 455.644 18.5912 450.254 29.2754C445.638 38.4305 449.695 43.1347 450.479 47.722C451.126 51.4424 450.528 54.0623 449.803 55.6011V55.6109Z" stroke="white" stroke-width="2"/>
<path d="M449.113 55.3342L464.025 60.8631L462.161 65.827C461.613 67.287 459.971 68.0399 458.493 67.4918L448.925 63.9444C447.456 63.3997 446.698 61.7673 447.25 60.2982L449.113 55.3342Z" fill="white"/>
<path d="M449.629 60.7766L460.032 64.6338L458.734 68.0921C458.35 69.1141 457.203 69.6347 456.174 69.2534L449.499 66.7785C448.471 66.3972 447.947 65.2569 448.331 64.2349L449.629 60.7766Z" fill="white"/>
<path d="M455.084 55.154L459.259 44.0413" stroke="white" stroke-width="2"/>
<path d="M459.562 56.8203L463.728 45.7075" stroke="white" stroke-width="2"/>
<path d="M455.906 42.8047L467.089 46.944" stroke="white" stroke-width="2"/>
<path d="M150.012 32.3485L119.575 24.6385C113.454 23.088 107.227 26.7621 105.667 32.8449L97.9089 63.0927C96.3488 69.1754 100.046 75.3633 106.167 76.9138L136.604 84.6238C142.725 86.1743 148.951 82.5002 150.511 76.4175L158.27 46.1697C159.83 40.087 156.133 33.899 150.012 32.3485Z" fill="#A0AFC1"/>
<path d="M139.594 70.9113C139.594 70.9113 139.869 69.8401 140.006 69.2849C141.388 63.9088 138.115 58.4351 132.705 57.0716C130.921 56.6236 124.698 55.0459 122.904 54.5881C117.495 53.2149 111.987 56.4678 110.615 61.844C110.468 62.3991 110.203 63.4705 110.203 63.4705L139.594 70.9113Z" fill="#080717"/>
<path d="M137.261 46.124C136.34 49.7081 132.675 51.8702 129.068 50.9645C125.462 50.049 123.286 46.4064 124.198 42.8223C125.119 39.2382 128.784 37.0761 132.391 37.9818C135.997 38.8973 138.173 42.5399 137.261 46.124Z" fill="#080717"/>
</svg>
