<svg width="219" height="173" viewBox="0 0 219 173" fill="none" xmlns="http://www.w3.org/2000/svg">
<path d="M122.192 1.00684H7.92367C4.09987 1.00684 1 4.10666 1 7.93045V140.64C1 144.463 4.09987 147.563 7.92367 147.563H122.192C126.016 147.563 129.115 144.463 129.115 140.64V7.93045C129.115 4.10666 126.016 1.00684 122.192 1.00684Z" fill="white" stroke="#282D33" stroke-width="2"/>
<path d="M129.115 10.2747V7.92357C129.115 4.10117 126.014 1 122.192 1H7.92367C4.10126 1 1 4.10117 1 7.92357V10.2747H129.115Z" fill="#6E46C9"/>
<path d="M40.2266 53.5472V28.4059C40.2266 24.5258 43.371 21.3813 47.2511 21.3813H99.2718C103.152 21.3813 106.297 24.5258 106.297 28.4059V40.3419C106.297 44.222 103.152 47.3664 99.2718 47.3664H49.8979C48.1886 47.3664 46.5371 47.9867 45.2534 49.119L40.2266 53.5472Z" fill="#A0AFC1"/>
<path d="M82.1437 91.7566V66.6154C82.1437 62.7353 78.9994 59.5908 75.1193 59.5908H47.2589C43.3788 59.5908 40.2344 62.7353 40.2344 66.6154V78.5513C40.2344 82.4314 43.3788 85.5759 47.2589 85.5759H72.4722C74.1814 85.5759 75.8333 86.1961 77.117 87.3284L82.1437 91.7566Z" fill="#6E46C9"/>
<path d="M6.68262 5.42871H9.0482" stroke="white" stroke-width="2"/>
<path d="M11.7021 5.42871H14.0677" stroke="white" stroke-width="2"/>
<path d="M16.7148 5.42871H19.0876" stroke="white" stroke-width="2"/>
<path d="M49.0762 29.6611H56.3677" stroke="black" stroke-width="2"/>
<path d="M58.9062 29.6611H91.923" stroke="black" stroke-width="2"/>
<path d="M49.0762 34.7305H69.5945" stroke="black" stroke-width="2"/>
<path d="M72.8252 34.7305H85.7421" stroke="black" stroke-width="2"/>
<path d="M49.0762 71.8149H54.2761" stroke="white" stroke-width="2"/>
<path d="M57.5068 71.8149H70.4238" stroke="white" stroke-width="2"/>
<path d="M88.9736 34.7305H98.0894" stroke="black" stroke-width="2"/>
<path d="M49.0762 39.7861H65.7937" stroke="black" stroke-width="2"/>
<path d="M29.1591 34.3273C32.1221 31.3643 32.1221 26.5604 29.1591 23.5975C26.1962 20.6345 21.3923 20.6346 18.4294 23.5975C15.4664 26.5605 15.4664 31.3643 18.4293 34.3273C21.3923 37.2902 26.1962 37.2902 29.1591 34.3273Z" stroke="#282D33" stroke-width="2"/>
<path d="M98.716 80.9393C102.906 80.9393 106.303 77.5424 106.303 73.3522C106.303 69.162 102.906 65.7651 98.716 65.7651C94.5258 65.7651 91.1289 69.162 91.1289 73.3522C91.1289 77.5424 94.5258 80.9393 98.716 80.9393Z" stroke="#282D33" stroke-width="2"/>
<path d="M28.5714 128.842H93.9416C100.771 128.842 106.303 123.31 106.303 116.48C106.303 109.65 100.771 104.119 93.9416 104.119H28.5714C21.7415 104.119 16.21 109.65 16.21 116.48C16.21 123.31 21.7415 128.842 28.5714 128.842Z" stroke="#282D33" stroke-width="2"/>
<path d="M28.9903 122.09C32.2484 122.09 34.8897 119.449 34.8897 116.19C34.8897 112.932 32.2484 110.291 28.9903 110.291C25.7321 110.291 23.0908 112.932 23.0908 116.19C23.0908 119.449 25.7321 122.09 28.9903 122.09Z" stroke="black" stroke-width="2" stroke-miterlimit="10"/>
<path d="M30.9084 118.117C29.8482 119.177 28.1246 119.177 27.0645 118.117" stroke="black" stroke-width="2" stroke-miterlimit="10"/>
<path d="M27.7283 115.354C27.7283 115.895 27.2883 116.335 26.7473 116.335C26.2064 116.335 25.7666 115.895 25.7666 115.354C25.7666 114.813 26.2064 114.373 26.7473 114.373C27.2883 114.373 27.7283 114.813 27.7283 115.354Z" fill="black"/>
<path d="M31.529 115.354C31.529 115.895 31.089 116.335 30.5481 116.335C30.0072 116.335 29.5674 115.895 29.5674 115.354C29.5674 114.813 30.0072 114.373 30.5481 114.373C31.089 114.373 31.529 114.813 31.529 115.354Z" fill="black"/>
<path d="M148.689 117.836V92.6945C148.689 88.8144 145.545 85.6699 141.665 85.6699H96.5892C92.7091 85.6699 89.5645 88.8144 89.5645 92.6945V104.63C89.5645 108.511 92.7091 111.655 96.5892 111.655H139.018C140.727 111.655 142.378 112.275 143.662 113.408L148.689 117.836Z" fill="#6E46C9"/>
<path d="M125.806 161.563L134.337 116.683L134.417 116.531C136.342 112.889 136.883 108.677 135.946 104.667L134.633 99.0636C134.366 97.9241 132.917 97.5707 132.159 98.465L132.051 98.5948C131.373 99.3881 130.962 100.383 130.883 101.422L130.464 106.579L128.661 106.153L124.053 98.1116L124.002 92.7386C123.995 91.7866 123.57 90.8923 122.848 90.2721L122.683 90.1278C122.077 89.6086 121.139 89.9115 120.944 90.676L120.252 93.3877L119.516 92.3276C118.932 91.4837 117.62 91.7578 117.418 92.7675L116.704 96.3735L115.874 95.3927C115.218 94.6138 113.949 95.0609 113.92 96.0778L113.826 99.5901L113.047 98.4145C112.644 97.8015 112.002 97.376 111.28 97.239C110.343 97.0587 109.376 97.3832 108.735 98.0972L108.511 98.3496L119.856 119.697L104.948 144.665" fill="white"/>
<path d="M113.429 131.929L119.834 119.712L108.489 98.364L108.713 98.1115C109.354 97.3975 110.321 97.073 111.259 97.2533C111.98 97.3903 112.621 97.8158 113.025 98.4289L113.804 99.6044L113.898 96.0922C113.927 95.0753 115.196 94.6281 115.853 95.407L116.682 96.3878L117.396 92.7818C117.598 91.7721 118.911 91.4981 119.495 92.3419L120.23 93.4021L120.923 90.6903C121.117 89.9186 122.055 89.6229 122.661 90.1422L122.827 90.2865C123.548 90.8995 123.974 91.801 123.981 92.753L124.031 98.126L128.64 106.167L130.443 106.593L130.861 101.436C130.947 100.391 131.359 99.4025 132.029 98.6092L132.137 98.4793C132.895 97.5851 134.344 97.9385 134.611 99.078L135.924 104.682C136.861 108.692 136.321 112.903 134.395 116.546L134.315 116.697L127.074 157.604" stroke="#080717" stroke-width="1.74" stroke-linecap="round" stroke-linejoin="round"/>
<path d="M120.772 103.261L119.488 100.124L120.245 93.4019" stroke="#080717" stroke-width="1.74" stroke-linecap="round" stroke-linejoin="round"/>
<path d="M116.69 96.3809L116.459 103.975" stroke="#080717" stroke-width="1.74" stroke-linecap="round" stroke-linejoin="round"/>
<path d="M113.812 99.5967L113.711 105.395" stroke="#080717" stroke-width="1.74" stroke-linecap="round" stroke-linejoin="round"/>
<path d="M195.098 135.318L176.051 123.353L179.397 102.604L198.668 105.705L195.098 135.318Z" fill="white" stroke="#080717" stroke-width="1.74" stroke-linecap="round" stroke-linejoin="round"/>
<path d="M195.928 78.6816C195.928 78.6816 185.327 84.6027 183.113 83.2108C180.891 81.8188 175.749 77.1815 178.093 73.0778C180.437 68.9669 181.54 70.7627 183.408 71.6137C185.276 72.4648 186.827 67.8274 188.096 68.188C189.358 68.5486 190.462 69.6665 192.366 72.1114C194.27 74.5563 195.928 78.6888 195.928 78.6888V78.6816Z" fill="#080717"/>
<path d="M192.56 112.384C197.233 111.793 201.734 109.435 204.993 105.432C211.578 97.3471 210.417 85.8006 202.736 79.252C190.137 68.4988 178.814 78.401 177.278 81.0694C176.917 81.6969 176.571 82.2955 176.225 82.8797C175.532 83.7884 174.934 84.7404 174.429 85.7212C173.058 87.6829 171.696 89.0244 170.109 89.2552C167.678 89.6158 165.645 107.567 179.138 108.713" fill="white"/>
<path d="M192.56 112.384C197.233 111.793 201.734 109.435 204.993 105.432C211.578 97.3471 210.417 85.8006 202.736 79.252C190.137 68.4988 178.814 78.401 177.278 81.0694C176.917 81.6969 176.571 82.2955 176.225 82.8797C175.532 83.7884 174.934 84.7404 174.429 85.7212C173.058 87.6829 171.696 89.0244 170.109 89.2552C167.678 89.6158 165.645 107.567 179.138 108.713" stroke="#080717" stroke-width="1.74" stroke-linecap="round" stroke-linejoin="round"/>
<path d="M206.522 76.7485C201.294 72.4862 194.478 71.4332 188.341 73.2939C190.007 74.0296 191.593 74.9815 193.058 76.1715C202.989 84.2635 203.667 99.8848 194.558 111.064C194.053 111.684 193.526 112.275 192.978 112.845C198.907 112.838 204.849 110.205 208.967 105.15C216.107 96.3797 215.011 83.6649 206.522 76.7485Z" fill="#080717"/>
<path d="M189.351 84.0614C190.49 81.4723 193.894 82.4819 191.824 80.7006C187.901 77.3397 187.324 71.7937 187.324 71.7937C198.683 70.8705 206.898 89.1026 206.898 89.1026L200.125 110.169L197.486 114.864L192.113 113.386C190.331 112.895 189.069 111.301 189.012 109.448L188.702 99.7909C188.774 99.8558 188.846 99.9279 188.925 99.9928C190.793 101.515 193.548 101.233 195.07 99.3654C196.592 97.4975 196.31 94.7425 194.442 93.2207C192.574 91.699 189.819 91.9803 188.298 93.8482C188.29 93.8554 188.283 93.8698 188.276 93.877C187.735 93.5525 186.509 92.687 187.172 91.699C188.016 90.4513 188.211 86.6433 189.351 84.0542V84.0614Z" fill="#080717"/>
<path d="M174.162 96.9277C174.162 96.9277 173.044 98.3053 171.378 98.1827" stroke="#080717" stroke-width="1.74" stroke-linecap="round" stroke-linejoin="round"/>
<path d="M189.776 96.1422C189.776 96.1422 190.678 94.6132 192.337 94.4834" stroke="#080717" stroke-width="1.74" stroke-linecap="round" stroke-linejoin="round"/>
<path d="M178.33 81.5957C180.948 81.3721 182.34 84.2857 181.936 85.5334" stroke="#080717" stroke-width="1.74" stroke-linecap="round" stroke-linejoin="round"/>
<path d="M177.45 87.7537C177.047 88.1504 176.484 88.2297 176.203 87.9412C175.921 87.6527 176.015 87.0902 176.419 86.7007C176.823 86.3041 177.386 86.2247 177.667 86.5132C177.948 86.8017 177.854 87.3642 177.45 87.7537Z" fill="#080717"/>
<path d="M178.518 108.151L177.45 114.793C180.465 114.108 183.285 112.456 185.383 109.874C186.227 108.843 186.891 107.725 187.403 106.564C184.684 108.042 181.554 108.583 178.518 108.158V108.151Z" fill="#080717"/>
<path d="M219 167.498L207.908 126.541C206.927 122.935 203.631 120.44 199.895 120.49L172.158 120.829C167.347 120.98 162.645 122.286 158.455 124.644L129.433 143.093L131.633 131.9L112.831 130.724L101.465 152.966C95.8466 163.957 106.953 176.001 118.363 171.285L158.181 154.834L161.491 167.736" fill="#080717"/>
<path d="M119.364 149.483L131.481 141.961" stroke="white" stroke-width="1.74" stroke-linecap="round" stroke-linejoin="round"/>
<path d="M173.146 126.397L175.15 115.355L199.123 116.545L202.253 125.394L173.146 126.397Z" fill="#080717"/>
</svg>
