<svg width="90" height="90" viewBox="0 0 90 90" fill="none" xmlns="http://www.w3.org/2000/svg">
<rect width="90" height="90" rx="24" fill="#6E46C9"/>
<path d="M46.1496 26.6016C45.8446 26.6016 45.5521 26.7227 45.3364 26.9384C45.1208 27.1541 44.9996 27.4466 44.9996 27.7516V33.7316C44.9996 36.8987 47.1317 39.5644 50.0366 40.3786C49.5306 46.6806 47.709 51.3841 46.2163 54.2844C46.6395 54.7812 47.0374 55.1515 47.3479 55.4114C48.5416 56.4096 49.5996 58.0357 49.5996 60.0643C49.6012 61.2652 49.2174 62.4349 48.5048 63.4016H61.0996C62.0146 63.4016 62.8921 63.0381 63.5391 62.3911C64.1861 61.7441 64.5496 60.8666 64.5496 59.9516V59.2455C64.5496 58.4451 64.2759 57.7068 63.855 57.1019C62.613 55.3148 59.0963 49.5349 58.3603 40.3763C59.81 39.9699 61.0871 39.1006 61.9969 37.901C62.9067 36.7014 63.3993 35.2372 63.3996 33.7316V27.7516C63.3996 27.4466 63.2785 27.1541 63.0628 26.9384C62.8471 26.7227 62.5546 26.6016 62.2496 26.6016H60.5246C60.0671 26.6016 59.6283 26.7833 59.3048 27.1068C58.9813 27.4303 58.7996 27.8691 58.7996 28.3266V30.0516C58.7999 30.2026 58.7705 30.3522 58.713 30.4918C58.6554 30.6315 58.571 30.7584 58.4644 30.8654C58.2492 31.0815 57.9569 31.2033 57.6519 31.2039C57.3469 31.2045 57.0542 31.0839 56.8381 30.8687C56.622 30.6534 56.5002 30.3612 56.4996 30.0562V30.0516L56.4904 28.3174C56.488 27.8615 56.3052 27.4251 55.9819 27.1035C55.6587 26.782 55.2213 26.6016 54.7654 26.6016H53.6338C53.1779 26.6016 52.7405 26.782 52.4173 27.1035C52.0941 27.4251 51.9112 27.8615 51.9088 28.3174L51.8996 30.0562C51.899 30.3612 51.7773 30.6534 51.5612 30.8687C51.3451 31.0839 51.0523 31.2045 50.7473 31.2039C50.4423 31.2033 50.15 31.0815 49.9348 30.8654C49.7196 30.6493 49.599 30.3566 49.5996 30.0516V28.3266C49.5996 27.8691 49.4179 27.4303 49.0944 27.1068C48.7709 26.7833 48.3321 26.6016 47.8746 26.6016H46.1496ZM36.9496 33.5016C35.6176 33.5016 34.3141 33.8871 33.1964 34.6117C32.0788 35.3362 31.1947 36.3688 30.6509 37.5847C30.1072 38.8007 29.927 40.148 30.1321 41.4641C30.3372 42.7802 30.9188 44.0088 31.8068 45.0016H31.1996C30.5896 45.0016 30.0046 45.2439 29.5733 45.6752C29.1419 46.1066 28.8996 46.6916 28.8996 47.3016C28.8996 47.9116 29.1419 48.4966 29.5733 48.9279C30.0046 49.3592 30.5896 49.6016 31.1996 49.6016H32.3956C31.54 53.737 29.2837 56.1244 28.0256 57.1755C27.2298 57.8425 26.5996 58.8683 26.5996 60.0643C26.5996 61.9066 28.0946 63.4016 29.9369 63.4016H43.9646C45.8046 63.4016 47.2996 61.9066 47.2996 60.0643C47.2996 58.8683 46.6694 57.8425 45.8736 57.1755C44.6155 56.1244 42.3592 53.737 41.5036 49.6016H42.6996C43.3096 49.6016 43.8946 49.3592 44.326 48.9279C44.7573 48.4966 44.9996 47.9116 44.9996 47.3016C44.9996 46.6916 44.7573 46.1066 44.326 45.6752C43.8946 45.2439 43.3096 45.0016 42.6996 45.0016H42.0924C42.9804 44.0088 43.562 42.7802 43.7672 41.4641C43.9723 40.148 43.7921 38.8007 43.2483 37.5847C42.7045 36.3688 41.8204 35.3362 40.7028 34.6117C39.5851 33.8871 38.2816 33.5016 36.9496 33.5016Z" fill="#FBFBFB"/>
</svg>
