<svg width="90" height="91" viewBox="0 0 90 91" fill="none" xmlns="http://www.w3.org/2000/svg">
<rect y="0.166748" width="90" height="90" rx="24" fill="#6E46C9"/>
<path d="M46.1501 26.7668C45.8451 26.7668 45.5526 26.888 45.3369 27.1037C45.1213 27.3193 45.0001 27.6118 45.0001 27.9168V33.8968C45.0001 37.0639 47.1322 39.7296 50.0371 40.5438C49.5311 46.8458 47.7095 51.5493 46.2168 54.4496C46.64 54.9464 47.0379 55.3167 47.3484 55.5766C48.5421 56.5748 49.6001 58.2009 49.6001 60.2295C49.6016 61.4305 49.2179 62.6002 48.5053 63.5668H61.1001C62.0151 63.5668 62.8926 63.2034 63.5396 62.5564C64.1866 61.9094 64.5501 61.0318 64.5501 60.1168V59.4107C64.5501 58.6103 64.2764 57.872 63.8555 57.2671C62.6135 55.48 59.0968 49.7001 58.3608 40.5415C59.8105 40.1352 61.0876 39.2659 61.9974 38.0663C62.9072 36.8667 63.3998 35.4024 63.4001 33.8968V27.9168C63.4001 27.6118 63.2789 27.3193 63.0633 27.1037C62.8476 26.888 62.5551 26.7668 62.2501 26.7668H60.5251C60.0676 26.7668 59.6288 26.9486 59.3053 27.2721C58.9818 27.5956 58.8001 28.0343 58.8001 28.4918V30.2168C58.8004 30.3679 58.771 30.5175 58.7134 30.6571C58.6559 30.7967 58.5715 30.9237 58.4649 31.0307C58.2497 31.2468 57.9574 31.3685 57.6524 31.3691C57.3474 31.3698 57.0546 31.2492 56.8386 31.0339C56.6225 30.8187 56.5007 30.5264 56.5001 30.2214V30.2168L56.4909 28.4826C56.4885 28.0267 56.3057 27.5903 55.9824 27.2688C55.6592 26.9473 55.2218 26.7668 54.7659 26.7668H53.6343C53.1784 26.7668 52.741 26.9473 52.4178 27.2688C52.0945 27.5903 51.9117 28.0267 51.9093 28.4826L51.9001 30.2214C51.8995 30.5264 51.7777 30.8187 51.5616 31.0339C51.3455 31.2492 51.0528 31.3698 50.7478 31.3691C50.4428 31.3685 50.1505 31.2468 49.9353 31.0307C49.7201 30.8146 49.5995 30.5218 49.6001 30.2168V28.4918C49.6001 28.0343 49.4184 27.5956 49.0949 27.2721C48.7714 26.9486 48.3326 26.7668 47.8751 26.7668H46.1501ZM36.9501 33.6668C35.6181 33.6669 34.3146 34.0524 33.1969 34.777C32.0793 35.5015 31.1952 36.5341 30.6514 37.75C30.1076 38.9659 29.9274 40.3133 30.1326 41.6294C30.3377 42.9454 30.9193 44.174 31.8073 45.1668H31.2001C30.5901 45.1668 30.0051 45.4092 29.5738 45.8405C29.1424 46.2718 28.9001 46.8568 28.9001 47.4668C28.9001 48.0768 29.1424 48.6619 29.5738 49.0932C30.0051 49.5245 30.5901 49.7668 31.2001 49.7668H32.3961C31.5405 53.9022 29.2842 56.2896 28.0261 57.3407C27.2303 58.0077 26.6001 59.0335 26.6001 60.2295C26.6001 62.0718 28.0951 63.5668 29.9374 63.5668H43.9651C45.8051 63.5668 47.3001 62.0718 47.3001 60.2295C47.3001 59.0335 46.6699 58.0077 45.8741 57.3407C44.616 56.2896 42.3597 53.9022 41.5041 49.7668H42.7001C43.3101 49.7668 43.8951 49.5245 44.3264 49.0932C44.7578 48.6619 45.0001 48.0768 45.0001 47.4668C45.0001 46.8568 44.7578 46.2718 44.3264 45.8405C43.8951 45.4092 43.3101 45.1668 42.7001 45.1668H42.0929C42.9809 44.174 43.5625 42.9454 43.7676 41.6294C43.9728 40.3133 43.7925 38.9659 43.2488 37.75C42.705 36.5341 41.8209 35.5015 40.7033 34.777C39.5856 34.0524 38.2821 33.6669 36.9501 33.6668Z" fill="#FBFBFB"/>
</svg>
