<svg width="90" height="91" viewBox="0 0 90 91" fill="none" xmlns="http://www.w3.org/2000/svg">
<rect y="0.5" width="90" height="90" rx="24" fill="#6E46C9"/>
<g clip-path="url(#clip0_257_5101)">
<path d="M64 45.5C64 55.9817 55.4817 64.5 45 64.5C34.5183 64.5 26 55.9817 26 45.5C26 35.0183 34.5183 26.5 45 26.5C46.1558 26.5 47.3275 26.6108 48.4517 26.8167C49.3067 26.975 49.8767 27.7983 49.7183 28.6533C49.56 29.5083 48.7367 30.0783 47.8817 29.92C46.9475 29.7458 45.9658 29.6667 45 29.6667C36.2758 29.6667 29.1667 36.7758 29.1667 45.5C29.1667 54.2242 36.2758 61.3333 45 61.3333C53.7242 61.3333 60.8333 54.2242 60.8333 45.5C60.8333 44.5342 60.7383 43.5683 60.58 42.6183C60.4217 41.7633 60.9917 40.94 61.8467 40.7817C62.7175 40.6233 63.525 41.1933 63.6833 42.0483C63.8892 43.1725 64 44.3442 64 45.5ZM46.3617 36.095C47.2325 36.2217 48.0242 35.62 48.1508 34.7492C48.2775 33.8783 47.6758 33.0867 46.805 32.96C46.2033 32.8808 45.6017 32.8333 45 32.8333C38.0175 32.8333 32.3333 38.5175 32.3333 45.5C32.3333 52.4825 38.0175 58.1667 45 58.1667C51.9825 58.1667 57.6667 52.4825 57.6667 45.5C57.6667 44.8983 57.6192 44.2967 57.54 43.695C57.4133 42.8242 56.6217 42.2225 55.7508 42.3492C54.88 42.4758 54.2783 43.2675 54.405 44.1383C54.4683 44.5817 54.5 45.0408 54.5 45.5C54.5 50.7408 50.2408 55 45 55C39.7592 55 35.5 50.7408 35.5 45.5C35.5 40.2592 39.7592 36 45 36C45.4592 36 45.9183 36.0317 46.3617 36.095ZM43.0208 40.9083C42.435 40.2592 41.4375 40.1958 40.7883 40.7817C39.4425 41.985 38.6825 43.7108 38.6825 45.5C38.6825 48.9992 41.5167 51.8333 45.0158 51.8333C46.8208 51.8333 48.5308 51.0575 49.7342 49.7275C50.32 49.0783 50.2567 48.0808 49.6075 47.495C48.9583 46.9092 47.9608 46.9725 47.375 47.6217C46.7733 48.2867 45.9183 48.6825 45.0158 48.6825C43.2742 48.6825 41.8492 47.2575 41.8492 45.5158C41.8492 44.6133 42.2292 43.7583 42.91 43.1567C43.5592 42.5708 43.6225 41.5733 43.0367 40.9242L43.0208 40.9083ZM45.475 42.8083C44.8575 43.4258 44.8575 44.4233 45.475 45.0408C45.7917 45.3575 46.1875 45.5 46.5992 45.5C47.0108 45.5 47.4067 45.3417 47.7233 45.0408L55.1808 37.5833H59.2817C59.7092 37.5833 60.105 37.4092 60.4058 37.1242L63.5725 33.9575C64.0317 33.4983 64.1583 32.8175 63.9208 32.2317C63.6833 31.6458 63.0975 31.25 62.4642 31.25H59.2975V28.0833C59.2975 27.45 58.9175 26.8642 58.3158 26.6267C57.7142 26.3733 57.0492 26.5158 56.59 26.975L53.4233 30.1417C53.1225 30.4425 52.9642 30.8383 52.9642 31.2658V35.3667L45.5067 42.8242L45.475 42.8083Z" fill="white"/>
</g>
<defs>
<clipPath id="clip0_257_5101">
<rect width="38" height="38" fill="white" transform="translate(26 26.5)"/>
</clipPath>
</defs>
</svg>
