<svg width="90" height="91" viewBox="0 0 90 91" fill="none" xmlns="http://www.w3.org/2000/svg">
<rect y="0.833496" width="90" height="90" rx="24" fill="#6E46C9"/>
<g clip-path="url(#clip0_257_5300)">
<path d="M63.9999 45.8335C63.9999 43.259 62.8694 40.8302 60.952 39.3038C61.1736 36.7357 60.2553 34.2197 58.4345 32.3973C56.6136 30.5781 54.1056 29.6566 51.6626 29.9352C48.4737 25.8882 41.5846 25.8107 38.4702 29.8798C35.8989 29.6582 33.3846 30.5749 31.5637 32.3973C29.7429 34.2182 28.8261 36.7357 29.1016 39.1692C25.0562 42.3581 24.9771 49.2487 29.0462 52.3616C28.8246 54.9297 29.7429 57.4472 31.5637 59.2681C33.3846 61.0905 35.9084 62.0104 38.3356 61.7302C41.5261 65.7772 48.4136 65.8547 51.5296 61.7856C54.0914 62.0057 56.6121 61.0905 58.4345 59.2681C60.2537 57.4472 61.1721 54.9297 60.8966 52.4962C62.8694 50.8368 63.9999 48.408 63.9999 45.8335ZM46.5832 53.7502V55.3335C46.5737 57.4045 43.4261 57.4029 43.4166 55.3335V53.7502H42.9922C40.9038 53.9481 37.0278 51.1456 39.4566 49.2139C40.2119 48.7753 41.1809 49.035 41.6195 49.7918C41.9013 50.2795 42.4286 50.5835 42.9922 50.5835H46.5832C48.1618 50.6864 48.8664 48.1293 47.1469 47.7968L42.3304 46.9941C36.7871 45.9649 37.981 37.8852 43.415 37.9168V36.3335C43.4245 34.2625 46.5721 34.2641 46.5816 36.3335V37.9168H47.006C48.6954 37.9168 50.2724 38.8272 51.1195 40.2918C51.5581 41.0487 51.2984 42.0161 50.5431 42.4547C49.7831 42.8917 48.8141 42.6336 48.3803 41.8767C48.0969 41.3875 47.5712 41.0851 47.0076 41.0851H43.4166C41.838 40.9822 41.1318 43.5392 42.8529 43.8717L47.6678 44.6745C53.2126 45.7021 52.0188 53.7818 46.5832 53.7502Z" fill="white"/>
</g>
<defs>
<clipPath id="clip0_257_5300">
<rect width="38" height="38" fill="white" transform="translate(26 26.8335)"/>
</clipPath>
</defs>
</svg>
