<svg width="90" height="91" viewBox="0 0 90 91" fill="none" xmlns="http://www.w3.org/2000/svg">
<rect y="0.833496" width="90" height="90" rx="24" fill="#6E46C9"/>
<g clip-path="url(#clip0_257_5107)">
<path d="M26 55.3334C26 60.5806 30.2528 64.8334 35.5 64.8334C40.7472 64.8334 45 60.5806 45 55.3334C45 50.0863 40.7472 45.8334 35.5 45.8334C30.2528 45.8334 26 50.0863 26 55.3334ZM37.4665 50.5866L39.8415 52.9616C40.1075 53.2276 40.2484 53.5839 40.2484 53.9449C40.2484 54.1238 40.2152 54.3043 40.1423 54.4769C39.927 54.9962 39.4203 55.3334 38.8567 55.3334H37.0817V60.0834C37.0817 60.9574 36.374 61.6668 35.4984 61.6668C34.6228 61.6668 33.9151 60.9574 33.9151 60.0834V55.3334H32.1402C31.5781 55.3334 31.0698 54.9962 30.8545 54.4769C30.636 53.9559 30.7563 53.359 31.1553 52.9616L33.5303 50.5866C34.6149 49.502 36.3819 49.502 37.4665 50.5866ZM40.25 33.086C40.25 29.5884 45.5668 26.7527 52.125 26.7527C58.6832 26.7527 64 29.5884 64 33.086C64 36.5836 58.6832 39.4194 52.125 39.4194C45.5668 39.4194 40.25 36.5836 40.25 33.086ZM52.125 45.7527C58.6832 45.7527 64 42.9169 64 39.4194V36.2527C64 39.7503 58.6832 42.586 52.125 42.586C45.5668 42.586 40.25 39.7503 40.25 36.2527V39.4194C40.25 42.9169 45.5668 45.7527 52.125 45.7527ZM52.125 61.6668C50.2218 61.6668 48.4232 61.4277 46.8288 61.0033C46.3569 61.9423 45.7743 62.8163 45.0934 63.6048C47.0615 64.3774 49.4935 64.835 52.125 64.835C58.6832 64.835 64 61.9993 64 58.5017V55.335C64 58.8326 58.6832 61.6668 52.125 61.6668ZM52.125 49.0001C49.826 49.0001 47.6806 48.6518 45.8629 48.0485C46.6388 49.1489 47.242 50.3776 47.6362 51.6981C49.0217 52.0005 50.5369 52.1668 52.125 52.1668C58.6832 52.1668 64 49.331 64 45.8334V42.6668C64 46.1644 58.6832 49.0001 52.125 49.0001ZM52.125 55.3334C50.7348 55.3334 49.4017 55.2052 48.1619 54.9709C48.1651 55.0912 48.1667 55.2115 48.1667 55.3334C48.1667 56.2771 48.0622 57.1954 47.8674 58.0805C49.1895 58.3513 50.624 58.5001 52.125 58.5001C58.6832 58.5001 64 55.6644 64 52.1668V49.0001C64 52.4977 58.6832 55.3334 52.125 55.3334Z" fill="white"/>
</g>
<defs>
<clipPath id="clip0_257_5107">
<rect width="38" height="38" fill="white" transform="translate(26 26.8335)"/>
</clipPath>
</defs>
</svg>
