<svg width="100" height="100" viewBox="0 0 100 100" fill="none" xmlns="http://www.w3.org/2000/svg">
<rect width="100" height="100" rx="20" fill="white"/>
<path d="M77.0543 14H25.2881C19.056 14 14 19.0495 14 25.2791V76.7745C14 81.6522 17.7976 85.8053 22.6814 85.9846C27.8048 86.1638 32.0144 82.0705 32.0144 76.9912V50.489C32.0144 40.2781 40.2988 32.0017 50.5158 32.0017H77.0468C82.0204 32.0017 86.0578 27.9756 86.0578 23.0009C86.0578 18.0336 82.0279 14 77.0468 14H77.0543Z" fill="#040404"/>
<path d="M80.5603 41.8317H51.0182C46.0071 41.8317 41.9473 45.8877 41.9473 50.8923V80.2927C41.9473 83.0938 43.9622 85.5886 46.7486 85.9397C50.1118 86.3655 52.9806 83.7511 52.9806 80.4719V71.5234C52.9806 61.2228 61.3399 52.8643 71.6542 52.8643H80.5603C83.6164 52.8643 86.0883 50.3993 86.0883 47.3517V47.3368C86.0883 44.2892 83.6164 41.8242 80.5603 41.8242V41.8317Z" fill="#040404"/>
<path d="M76.0884 62.9336H78.0059C82.4328 62.9336 86.0207 66.5115 86.0207 70.9261V77.2902C86.0207 82.0931 82.1107 85.9997 77.2869 85.9997H70.9425C66.5156 85.9997 62.9277 82.4218 62.9277 78.0073V76.0577C62.9277 68.8122 68.8227 62.9336 76.0884 62.9336Z" fill="#040404"/>
</svg>
