<svg width="90" height="90" viewBox="0 0 90 90" fill="none" xmlns="http://www.w3.org/2000/svg">
<rect width="90" height="90" rx="24" fill="#6E46C9"/>
<g clip-path="url(#clip0_822_8100)">
<path d="M56.0839 27.125C56.0839 26.228 56.7916 25.5 57.6672 25.5H62.4173C63.0174 25.5 63.5652 25.8477 63.8344 26.3986C64.102 26.9495 64.045 27.6076 63.684 28.1L60.8339 32H62.4173C63.2929 32 64.0007 32.728 64.0007 33.625C64.0007 34.522 63.2929 35.25 62.4173 35.25H57.6672C57.0671 35.25 56.5193 34.9023 56.2501 34.3514C55.9825 33.8005 56.0395 33.1424 56.4005 32.65L59.2506 28.75H57.6672C56.7916 28.75 56.0839 28.022 56.0839 27.125ZM62.8765 38.4545C62.8717 38.4545 62.8717 38.4545 62.8765 38.4545V38.4545ZM57.6672 38.5H62.8907C63.5953 40.5361 64.0007 42.7185 64.0007 45C64.0007 55.7526 55.4774 64.5 45.0003 64.5C34.5232 64.5 26 55.7526 26 45C26 34.2474 34.5232 25.5 45.0003 25.5C47.8345 25.5 50.5152 26.1581 52.933 27.3038C52.9757 28.4721 53.4064 29.5398 54.1157 30.3587L53.8687 30.6984C52.7825 32.1836 52.61 34.1385 53.4206 35.8074C54.2329 37.4665 55.859 38.4984 57.6688 38.4984L57.6672 38.5ZM43.417 32C43.417 32.897 44.1247 33.625 45.0003 33.625H46.5837L43.7336 37.525C43.3726 38.0174 43.3156 38.6755 43.5832 39.2264C43.8524 39.7772 44.4002 40.125 45.0003 40.125H49.7504C50.626 40.125 51.3338 39.397 51.3338 38.5C51.3338 37.603 50.626 36.875 49.7504 36.875H48.1671L51.0171 32.975C51.3781 32.4826 51.4351 31.8245 51.1675 31.2736C50.8984 30.7228 50.3505 30.375 49.7504 30.375H45.0003C44.1247 30.375 43.417 31.103 43.417 32ZM38.6336 48.2451C40.2629 48.2451 41.9223 47.4326 43.0781 46.066C43.6497 45.3884 43.5785 44.3614 42.9182 43.7731C42.2579 43.1865 41.2588 43.2564 40.6841 43.9356C40.1315 44.5889 39.3461 44.9951 38.6336 44.9951H38.6226C37.9512 44.9919 37.3242 44.6392 36.7558 43.9503C36.1905 43.2661 35.1946 43.1768 34.5232 43.7601C33.8566 44.3386 33.7727 45.3656 34.338 46.0497C35.8232 47.8503 37.4762 48.237 38.602 48.2451H38.6336ZM48.1671 54.75C48.1671 52.9544 46.7499 51.5 45.0003 51.5C43.2507 51.5 41.8336 52.9544 41.8336 54.75C41.8336 56.5456 43.2507 58 45.0003 58C46.7499 58 48.1671 56.5456 48.1671 54.75ZM55.5851 43.7731C54.9248 43.1865 53.9242 43.2564 53.351 43.9356C52.7984 44.5889 52.013 44.9951 51.3005 44.9951H51.2894C50.6181 44.9919 49.9911 44.6392 49.4227 43.9503C48.859 43.2661 47.8615 43.1768 47.1901 43.7601C46.5235 44.3386 46.4396 45.3656 47.0049 46.0497C48.4901 47.8503 50.1431 48.237 51.2689 48.2451H51.3005C52.9298 48.2451 54.5892 47.4326 55.745 46.066C56.3166 45.3884 56.2454 44.3614 55.5851 43.7731Z" fill="white"/>
</g>
<defs>
<clipPath id="clip0_822_8100">
<rect width="38.0007" height="39" fill="white" transform="translate(26 25.5)"/>
</clipPath>
</defs>
</svg>
