<svg width="151" height="24" viewBox="0 0 151 24" fill="none" xmlns="http://www.w3.org/2000/svg">
<g clip-path="url(#clip0_257_4442)">
<path d="M21.031 0.00995255H3.765C1.68638 0.00995255 0 1.69189 0 3.76695V20.9198C0 22.5445 1.26666 23.9278 2.89558 23.9876C4.60444 24.0473 6.00851 22.6838 6.00851 20.9919V12.1642C6.00851 8.76301 8.77168 6.00622 12.1794 6.00622H21.0285C22.6874 6.00622 24.0341 4.66515 24.0341 3.00809C24.0341 1.35351 22.6899 0.00995255 21.0285 0.00995255H21.031Z" fill="white"/>
<path d="M22.2002 9.28053H12.3468C10.6754 9.28053 9.32129 10.6316 9.32129 12.2986V22.0916C9.32129 23.0247 9.99334 23.8557 10.9227 23.9726C12.0445 24.1145 13.0013 23.2436 13.0013 22.1514V19.1706C13.0013 15.7396 15.7895 12.9554 19.2297 12.9554H22.2002C23.2196 12.9554 24.044 12.1344 24.044 11.1192V11.1142C24.044 10.0991 23.2196 9.27804 22.2002 9.27804V9.28053Z" fill="white"/>
<path d="M20.7087 16.3118H21.3483C22.8248 16.3118 24.0215 17.5036 24.0215 18.9741V21.0939C24.0215 22.6938 22.7173 23.995 21.1084 23.995H18.9923C17.5158 23.995 16.3191 22.8032 16.3191 21.3328V20.6834C16.3191 18.27 18.2853 16.3118 20.7087 16.3118Z" fill="white"/>
<path d="M41.7223 3.43106C42.1645 3.43106 42.5242 3.07278 42.5242 2.63239V0.803649C42.5242 0.363259 42.1645 0.00497616 41.7223 0.00497616H39.6786C39.5962 0.00497616 39.5137 0 39.4338 0C35.6738 0 33.5977 2.09496 33.5977 5.78976V22.2185C33.5977 23.4062 34.2189 24 35.4614 24C36.7039 24 37.3202 23.4062 37.3102 22.2185V11.1292C37.3102 10.7759 37.5975 10.4897 37.9523 10.4897H40.8429C41.9654 10.4897 42.5267 9.92328 42.5267 8.79038C42.5267 7.66909 41.9654 7.10844 40.8429 7.10844H37.9523C37.5975 7.10844 37.3102 6.82231 37.3102 6.469V6.11818C37.3102 4.41883 38.0122 3.42857 39.6811 3.42857H41.7248L41.7223 3.43106Z" fill="white"/>
<path d="M44.313 17.2822C44.1981 16.0456 44.1981 13.9929 44.313 12.7564C44.6728 8.83268 47.6983 6.06345 52.0154 6.06345C56.3325 6.06345 59.373 8.83268 59.7328 12.7564C59.8477 13.9929 59.8477 16.0456 59.7328 17.2822C59.3555 21.2059 56.3475 23.9751 52.0154 23.9751C47.6833 23.9751 44.7052 21.2059 44.313 17.2822ZM52.0154 20.3923C54.3214 20.3923 55.8578 18.9094 56.0552 16.7448C56.1701 15.6202 56.1701 14.4159 56.0552 13.2938C55.8578 11.1292 54.3214 9.64628 52.0154 9.64628C49.7094 9.64628 48.1904 11.1292 47.9756 13.2938C47.8781 14.4184 47.8781 15.6226 47.9756 16.7448C48.1879 18.9094 49.7244 20.3923 52.0154 20.3923Z" fill="white"/>
<path d="M63.248 16.9737V7.86979C63.248 6.67883 63.8693 6.08335 65.1118 6.08335C66.3543 6.08335 66.9706 6.67883 66.9606 7.86979V16.593C66.9606 19.0437 68.2023 20.3326 70.6232 20.3326C71.6999 20.3326 72.7742 20.3774 73.6037 20.1659C74.0434 20.0539 74.3507 19.6558 74.3507 19.2005V7.86979C74.3507 6.67883 74.9669 6.08335 76.1995 6.08335C77.432 6.08335 78.0482 6.67883 78.0482 7.86979V20.9695C78.0482 22.4425 77.9833 22.8555 77.0989 23.3531C75.8572 24.0821 73.5337 23.9751 70.5582 23.9751C65.9962 23.9751 63.248 21.3278 63.248 16.9737Z" fill="white"/>
<path d="M81.4485 22.1937V9.11383C81.4485 7.64338 81.5309 7.23035 82.3979 6.73274C83.657 6.00622 85.9955 6.11072 88.9885 6.11072C93.6479 6.11072 96.3311 8.75555 96.3311 13.1022V22.1937C96.3311 23.3846 95.7099 23.9801 94.4673 23.9801C93.2248 23.9801 92.6086 23.3846 92.6186 22.1937V13.4829C92.6186 11.0371 91.3594 9.7458 88.9235 9.7458C87.8143 9.7458 86.705 9.73336 85.8656 9.9747C85.4458 10.0966 85.1635 10.4897 85.1635 10.9251V22.1912C85.1635 23.3821 84.5423 23.9776 83.2998 23.9776C82.0672 23.9776 81.451 23.3821 81.451 22.1912L81.4485 22.1937Z" fill="white"/>
<path d="M99.8386 17.3444C99.7087 16.0108 99.7087 13.8188 99.8386 12.5001C100.198 8.57889 102.994 6.03857 107.016 6.03857C108.505 6.03857 110.074 6.05847 111.104 6.56853V1.78644C111.104 0.600457 111.725 0.00746536 112.967 0.00746536C114.21 0.00746536 114.826 0.600457 114.816 1.78644V20.7531C114.816 21.4771 114.619 21.8403 114.114 22.1862C113.052 22.8953 110.452 23.9826 107.344 23.9826C102.994 23.9826 100.198 21.2631 99.8386 17.3419V17.3444ZM107.491 20.1062C108.75 20.1062 110.319 19.728 111.104 19.1657V10.1688C110.319 9.60896 108.75 9.22828 107.491 9.22828C105.055 9.22828 103.714 10.6788 103.519 12.836C103.421 14.0377 103.436 15.4062 103.519 16.4935C103.716 18.6531 105.055 20.1012 107.491 20.1012V20.1062Z" fill="white"/>
<path d="M118.304 17.3145C118.189 16.0929 118.189 14.1074 118.286 12.9679C118.664 8.94464 121.574 6.09579 125.971 6.09579C130.368 6.09579 133.199 9.01182 133.199 13.2938V14.2542C133.199 16.0456 132.839 16.3069 131.22 16.3069H121.769C121.769 16.5358 121.769 16.7796 121.787 17.006C121.916 19.1881 123.6 20.6361 126.136 20.6361C127.673 20.6361 128.752 20.3425 129.799 19.9196C130.356 19.6906 130.666 19.5289 130.975 19.5289C131.335 19.5289 131.53 19.7902 131.94 20.7332C132.267 21.4671 132.35 21.7433 132.35 21.9548C132.35 22.2633 132.17 22.4599 131.4 22.8007C129.896 23.4526 128.115 23.9726 126.136 23.9726C121.672 23.9726 118.664 21.2357 118.304 17.312V17.3145ZM129.766 13.667C129.996 10.8654 128.345 9.25316 125.859 9.25316C123.373 9.25316 121.934 10.8804 121.787 13.259C121.787 13.3883 121.769 13.5351 121.769 13.667H129.764H129.766Z" fill="white"/>
<path d="M136.624 18.4217C136.624 15.6525 138.765 13.147 143.197 13.147C144.619 13.147 145.878 13.3261 147.367 13.7168V12.3657C147.367 10.3952 146.32 9.41737 143.672 9.41737C142.43 9.41737 141.039 9.82542 140.124 10.1986C139.682 10.3778 139.355 10.4599 139.16 10.4599C138.783 10.4599 138.588 10.231 138.196 9.2233C137.901 8.52415 137.803 8.19822 137.803 7.9519C137.803 7.59361 138.001 7.43189 138.85 7.08853C140.239 6.50135 141.991 6.06345 143.952 6.06345C148.399 6.06345 150.95 8.06635 150.95 12.4628V20.7829C150.95 21.4995 150.77 21.8403 150.263 22.1837C149.248 22.8829 146.698 23.9751 143.362 23.9751C139.03 23.9751 136.627 21.5492 136.627 18.4217H136.624ZM143.672 20.9297C144.996 20.9297 146.37 20.554 147.367 20.034V16.3691C146.011 15.961 144.899 15.7819 143.819 15.7819C141.319 15.7819 140.157 16.9065 140.157 18.4043C140.157 19.9992 141.531 20.9272 143.672 20.9272V20.9297Z" fill="white"/>
</g>
<defs>
<clipPath id="clip0_257_4442">
<rect width="150.947" height="24" fill="white"/>
</clipPath>
</defs>
</svg>
