<svg width="365" height="110" viewBox="0 0 365 110" fill="none" xmlns="http://www.w3.org/2000/svg">
<g clip-path="url(#clip0_260_9698)">
<path d="M50.825 0.0239258H9.09876C4.07542 0.0239258 0 4.08862 0 9.10334V50.556C0 54.4823 3.06109 57.8255 6.99765 57.9698C11.1274 58.1141 14.5206 54.8191 14.5206 50.7303V29.3967C14.5206 21.1771 21.1982 14.5149 29.4336 14.5149H50.819C54.828 14.5149 58.0823 11.274 58.0823 7.26942C58.0823 3.27087 54.834 0.0239258 50.819 0.0239258H50.825Z" fill="#1D1D1B"/>
<path d="M53.6505 22.4279H29.838C25.7988 22.4279 22.5264 25.6929 22.5264 29.7215V53.3881C22.5264 55.6429 24.1505 57.6512 26.3965 57.9338C29.1074 58.2765 31.4198 56.172 31.4198 53.5324V46.329C31.4198 38.0373 38.1579 31.3089 46.4717 31.3089H53.6505C56.1139 31.3089 58.1063 29.3246 58.1063 26.8714V26.8594C58.1063 24.4061 56.1139 22.4219 53.6505 22.4219V22.4279Z" fill="#1D1D1B"/>
<path d="M50.0466 39.4199H51.5923C55.1605 39.4199 58.0526 42.3001 58.0526 45.8537V50.9766C58.0526 54.8429 54.9009 57.9876 51.0127 57.9876H45.8988C42.3305 57.9876 39.4385 55.1075 39.4385 51.5539V49.9845C39.4385 44.152 44.1901 39.4199 50.0466 39.4199Z" fill="#1D1D1B"/>
<path d="M100.829 8.29173C101.897 8.29173 102.767 7.42588 102.767 6.3616V1.94215C102.767 0.877877 101.897 0.0120257 100.829 0.0120257H95.89C95.6908 0.0120257 95.4915 0 95.2983 0C86.2116 0 81.1943 5.06282 81.1943 13.9919V53.6948C81.1943 56.5649 82.6957 58 85.6984 58C88.7012 58 90.1905 56.5649 90.1663 53.6948V26.8955C90.1663 26.0417 90.8606 25.3502 91.718 25.3502H98.7036C101.416 25.3502 102.773 23.9813 102.773 21.2434C102.773 18.5336 101.416 17.1787 98.7036 17.1787H91.718C90.8606 17.1787 90.1663 16.4872 90.1663 15.6334V14.7856C90.1663 10.6788 91.8629 8.28571 95.896 8.28571H100.835L100.829 8.29173Z" fill="#1D1D1B"/>
<path d="M107.09 41.7653C106.812 38.7769 106.812 33.8163 107.09 30.8279C107.96 21.3456 115.271 14.6533 125.704 14.6533C136.137 14.6533 143.485 21.3456 144.355 30.8279C144.632 33.8163 144.632 38.7769 144.355 41.7653C143.443 51.2476 136.174 57.9399 125.704 57.9399C115.235 57.9399 108.038 51.2476 107.09 41.7653ZM125.704 49.2813C131.277 49.2813 134.99 45.6977 135.467 40.4665C135.745 37.7487 135.745 34.8385 135.467 32.1267C134.99 26.8955 131.277 23.3118 125.704 23.3118C120.131 23.3118 116.461 26.8955 115.941 32.1267C115.706 34.8445 115.706 37.7547 115.941 40.4665C116.455 45.6977 120.168 49.2813 125.704 49.2813Z" fill="#1D1D1B"/>
<path d="M152.85 41.0199V19.0189C152.85 16.1407 154.351 14.7017 157.354 14.7017C160.356 14.7017 161.846 16.1407 161.822 19.0189V40.1C161.822 46.0226 164.822 49.1373 170.673 49.1373C173.275 49.1373 175.871 49.2455 177.876 48.7344C178.938 48.4638 179.681 47.5018 179.681 46.4014V19.0189C179.681 16.1407 181.17 14.7017 184.149 14.7017C187.127 14.7017 188.617 16.1407 188.617 19.0189V50.6766C188.617 54.2362 188.46 55.2343 186.322 56.4369C183.322 58.1987 177.707 57.9401 170.516 57.9401C159.491 57.9401 152.85 51.5424 152.85 41.0199Z" fill="#1D1D1B"/>
<path d="M196.834 53.6346V22.025C196.834 18.4714 197.033 17.4733 199.128 16.2707C202.171 14.5149 207.823 14.7675 215.056 14.7675C226.316 14.7675 232.8 21.1592 232.8 31.6636V53.6346C232.8 56.5127 231.299 57.9518 228.296 57.9518C225.294 57.9518 223.804 56.5127 223.828 53.6346V32.5836C223.828 26.6729 220.785 23.5523 214.899 23.5523C212.218 23.5523 209.537 23.5222 207.509 24.1055C206.494 24.4001 205.812 25.3501 205.812 26.4024V53.6286C205.812 56.5067 204.311 57.9458 201.308 57.9458C198.329 57.9458 196.84 56.5067 196.84 53.6286L196.834 53.6346Z" fill="#1D1D1B"/>
<path d="M241.276 41.9156C240.963 38.6927 240.963 33.3954 241.276 30.2086C242.146 20.7324 248.902 14.5932 258.623 14.5932C262.221 14.5932 266.013 14.6413 268.5 15.874V4.31726C268.5 1.45113 270.002 0.0180664 273.004 0.0180664C276.007 0.0180664 277.496 1.45113 277.472 4.31726V50.1533C277.472 51.903 276.995 52.7809 275.776 53.6167C273.21 55.3303 266.924 57.9579 259.414 57.9579C248.902 57.9579 242.146 51.3859 241.276 41.9096V41.9156ZM259.77 48.5899C262.813 48.5899 266.604 47.676 268.5 46.317V24.5746C266.604 23.2217 262.813 22.3017 259.77 22.3017C253.883 22.3017 250.641 25.8072 250.17 31.0203C249.934 33.9246 249.971 37.2316 250.17 39.8592C250.647 45.0784 253.883 48.5779 259.77 48.5779V48.5899Z" fill="#1D1D1B"/>
<path d="M285.901 41.8434C285.624 38.8911 285.624 34.0928 285.859 31.339C286.771 21.6162 293.805 14.7314 304.431 14.7314C315.057 14.7314 321.898 21.7785 321.898 32.1266V34.4476C321.898 38.7769 321.029 39.4082 317.116 39.4082H294.276C294.276 39.9614 294.276 40.5506 294.318 41.0978C294.632 46.3711 298.701 49.8706 304.829 49.8706C308.543 49.8706 311.151 49.1611 313.681 48.1389C315.027 47.5857 315.776 47.1949 316.524 47.1949C317.394 47.1949 317.865 47.8262 318.855 50.1051C319.646 51.8789 319.845 52.5463 319.845 53.0574C319.845 53.803 319.41 54.278 317.551 55.1018C313.916 56.6771 309.611 57.9338 304.829 57.9338C294.04 57.9338 286.771 51.3197 285.901 41.8374V41.8434ZM313.602 33.0286C314.158 26.2581 310.167 22.3618 304.159 22.3618C298.152 22.3618 294.674 26.2942 294.318 32.0425C294.318 32.3551 294.276 32.7099 294.276 33.0286H313.596H313.602Z" fill="#1D1D1B"/>
<path d="M330.176 44.5192C330.176 37.8269 335.35 31.7719 346.061 31.7719C349.496 31.7719 352.539 32.2048 356.138 33.1489V29.8839C356.138 25.1217 353.608 22.7586 347.208 22.7586C344.207 22.7586 340.844 23.7448 338.635 24.6467C337.566 25.0796 336.775 25.278 336.304 25.278C335.392 25.278 334.921 24.7249 333.973 22.2896C333.261 20.6 333.026 19.8123 333.026 19.2171C333.026 18.3512 333.503 17.9604 335.555 17.1306C338.912 15.7116 343.145 14.6533 347.884 14.6533C358.631 14.6533 364.796 19.4937 364.796 30.1184V50.2254C364.796 51.9571 364.361 52.7808 363.135 53.6106C360.684 55.3002 354.52 57.9399 346.459 57.9399C335.99 57.9399 330.182 52.0773 330.182 44.5192H330.176ZM347.208 50.5801C350.408 50.5801 353.729 49.6722 356.138 48.4155V39.5586C352.859 38.5725 350.173 38.1395 347.564 38.1395C341.521 38.1395 338.713 40.8573 338.713 44.4771C338.713 48.3313 342.034 50.5741 347.208 50.5741V50.5801Z" fill="#1D1D1B"/>
</g>
<path d="M5.74201 103.695L0 82.3439H4.19166L8.69914 100.542H7.60816L12.3166 82.3439H16.3647L21.0445 100.542H19.9535L24.4609 82.3439H28.6526L22.9106 103.695H18.4318L13.6947 85.9836H14.9579L10.2208 103.695H5.74201Z" fill="#83838B"/>
<path d="M37.1882 104.039C35.5805 104.039 34.1737 103.676 32.9679 102.95C31.762 102.224 30.8242 101.24 30.1543 99.998C29.4844 98.7561 29.1494 97.3804 29.1494 95.871C29.1494 94.3043 29.4844 92.9191 30.1543 91.7155C30.8433 90.4927 31.7716 89.5278 32.9391 88.8209C34.1258 88.114 35.4465 87.7605 36.9011 87.7605C38.1261 87.7605 39.1979 87.9611 40.1167 88.3623C41.0545 88.7636 41.8488 89.3176 42.4996 90.0246C43.1503 90.7315 43.648 91.5435 43.9925 92.4606C44.337 93.3586 44.5093 94.333 44.5093 95.3838C44.5093 95.6513 44.4902 95.9284 44.4519 96.2149C44.4327 96.5015 44.3849 96.7499 44.3083 96.9601H32.2501V94.0942H42.1838L40.4038 95.4411C40.576 94.5623 40.5282 93.7789 40.2602 93.0911C40.0114 92.4033 39.5903 91.8588 38.997 91.4575C38.4228 91.0563 37.7242 90.8557 36.9011 90.8557C36.1164 90.8557 35.4178 91.0563 34.8053 91.4575C34.1928 91.8396 33.7239 92.4128 33.3985 93.1771C33.0923 93.9222 32.9774 94.8298 33.054 95.8997C32.9774 96.855 33.1018 97.7052 33.4272 98.4504C33.7717 99.1764 34.2694 99.74 34.9201 100.141C35.59 100.542 36.3556 100.743 37.2169 100.743C38.0782 100.743 38.8056 100.562 39.3989 100.199C40.0114 99.8356 40.4899 99.3483 40.8344 98.7369L43.8777 100.227C43.5714 100.972 43.0929 101.632 42.4422 102.205C41.7914 102.778 41.0162 103.227 40.1167 103.552C39.2362 103.876 38.2601 104.039 37.1882 104.039Z" fill="#83838B"/>
<path d="M59.9851 104.039C58.4348 104.039 57.0376 103.685 55.7935 102.979C54.5685 102.252 53.6019 101.278 52.8937 100.055C52.1856 98.8134 51.8315 97.4186 51.8315 95.871C51.8315 94.3234 52.1856 92.9382 52.8937 91.7155C53.6019 90.4927 54.5685 89.5278 55.7935 88.8209C57.0376 88.114 58.4348 87.7605 59.9851 87.7605C61.0952 87.7605 62.1288 87.9611 63.0858 88.3623C64.0428 88.7445 64.8658 89.2794 65.5549 89.9672C66.263 90.636 66.7703 91.4384 67.0765 92.3746L63.7748 93.8076C63.4877 93.0242 62.9997 92.3937 62.3106 91.9161C61.6407 91.4384 60.8656 91.1996 59.9851 91.1996C59.1621 91.1996 58.4252 91.4002 57.7744 91.8014C57.1428 92.2027 56.6452 92.7567 56.2815 93.4637C55.9179 94.1706 55.736 94.9826 55.736 95.8997C55.736 96.8168 55.9179 97.6288 56.2815 98.3357C56.6452 99.0426 57.1428 99.5967 57.7744 99.998C58.4252 100.399 59.1621 100.6 59.9851 100.6C60.8847 100.6 61.6694 100.361 62.3393 99.8833C63.0092 99.4057 63.4877 98.7656 63.7748 97.9632L67.0765 99.4534C66.7703 100.332 66.2726 101.125 65.5836 101.832C64.8945 102.52 64.0715 103.064 63.1145 103.466C62.1575 103.848 61.1144 104.039 59.9851 104.039Z" fill="#83838B"/>
<path d="M74.6113 104.039C73.5203 104.039 72.5729 103.857 71.769 103.494C70.9651 103.131 70.3431 102.615 69.9029 101.947C69.4626 101.259 69.2425 100.466 69.2425 99.5681C69.2425 98.7083 69.4339 97.944 69.8167 97.2753C70.1995 96.5875 70.7929 96.0143 71.5968 95.5558C72.4006 95.0972 73.4151 94.7724 74.64 94.5814L79.7504 93.7503V96.6162L75.3578 97.3613C74.6113 97.4951 74.0562 97.7339 73.6926 98.0778C73.3289 98.4217 73.1471 98.8707 73.1471 99.4248C73.1471 99.9597 73.3481 100.39 73.75 100.714C74.1711 101.02 74.6879 101.173 75.3003 101.173C76.0851 101.173 76.7741 101.011 77.3675 100.686C77.9799 100.342 78.4489 99.8738 78.7743 99.2815C79.1188 98.6892 79.291 98.0396 79.291 97.3327V93.3204C79.291 92.6517 79.0231 92.0976 78.4872 91.6581C77.9704 91.1996 77.2813 90.9703 76.42 90.9703C75.6161 90.9703 74.8984 91.19 74.2668 91.6295C73.6543 92.0498 73.2045 92.6134 72.9174 93.3204L69.8454 91.8301C70.1517 91.0085 70.6302 90.3016 71.2809 89.7093C71.9508 89.0979 72.7356 88.6203 73.6352 88.2764C74.5347 87.9324 75.5109 87.7605 76.5636 87.7605C77.846 87.7605 78.9752 87.9993 79.9514 88.477C80.9275 88.9355 81.6835 89.5851 82.2195 90.4258C82.7745 91.2474 83.0521 92.2122 83.0521 93.3204V103.695H79.492V101.03L80.2959 100.972C79.894 101.641 79.4155 102.205 78.8604 102.663C78.3053 103.103 77.6737 103.447 76.9655 103.695C76.2573 103.924 75.4726 104.039 74.6113 104.039Z" fill="#83838B"/>
<path d="M86.5282 103.695V88.1044H90.0595V91.1709L89.7724 90.6264C90.1361 89.6902 90.7294 88.9833 91.5525 88.5056C92.3946 88.0089 93.3708 87.7605 94.4809 87.7605C95.6293 87.7605 96.6437 88.0089 97.5241 88.5056C98.4237 89.0024 99.1223 89.6998 99.62 90.5977C100.118 91.4766 100.366 92.4988 100.366 93.6643V103.695H96.6054V94.5527C96.6054 93.8649 96.4715 93.2726 96.2035 92.7758C95.9355 92.2791 95.5623 91.897 95.0838 91.6295C94.6244 91.3429 94.0789 91.1996 93.4473 91.1996C92.8348 91.1996 92.2894 91.3429 91.8109 91.6295C91.3324 91.897 90.9591 92.2791 90.6912 92.7758C90.4232 93.2726 90.2892 93.8649 90.2892 94.5527V103.695H86.5282Z" fill="#83838B"/>
<path d="M115.913 104.039C114.401 104.039 113.052 103.685 111.865 102.979C110.678 102.252 109.74 101.269 109.051 100.027C108.362 98.7847 108.018 97.4091 108.018 95.8997C108.018 94.3712 108.362 92.9956 109.051 91.7728C109.74 90.55 110.678 89.5756 111.865 88.8495C113.071 88.1235 114.411 87.7605 115.884 87.7605C117.071 87.7605 118.124 87.9993 119.043 88.477C119.98 88.9355 120.717 89.5851 121.253 90.4258L120.679 91.1996V82H124.44V103.695H120.88V100.686L121.282 101.431C120.746 102.272 120 102.921 119.043 103.38C118.086 103.819 117.042 104.039 115.913 104.039ZM116.315 100.6C117.176 100.6 117.932 100.399 118.583 99.998C119.234 99.5967 119.741 99.0426 120.105 98.3357C120.488 97.6288 120.679 96.8168 120.679 95.8997C120.679 95.0017 120.488 94.1993 120.105 93.4923C119.741 92.7663 119.234 92.2027 118.583 91.8014C117.932 91.4002 117.176 91.1996 116.315 91.1996C115.473 91.1996 114.717 91.4098 114.047 91.8301C113.377 92.2313 112.851 92.7854 112.468 93.4923C112.104 94.1801 111.922 94.9826 111.922 95.8997C111.922 96.8168 112.104 97.6288 112.468 98.3357C112.851 99.0426 113.377 99.5967 114.047 99.998C114.717 100.399 115.473 100.6 116.315 100.6Z" fill="#83838B"/>
<path d="M135.576 104.039C134.045 104.039 132.648 103.685 131.384 102.979C130.14 102.272 129.145 101.307 128.398 100.084C127.671 98.8611 127.307 97.4664 127.307 95.8997C127.307 94.333 127.671 92.9382 128.398 91.7155C129.145 90.4927 130.14 89.5278 131.384 88.8209C132.628 88.114 134.026 87.7605 135.576 87.7605C137.107 87.7605 138.495 88.114 139.739 88.8209C140.983 89.5278 141.969 90.4927 142.696 91.7155C143.442 92.9191 143.816 94.3139 143.816 95.8997C143.816 97.4664 143.442 98.8611 142.696 100.084C141.95 101.307 140.954 102.272 139.71 102.979C138.466 103.685 137.088 104.039 135.576 104.039ZM135.576 100.6C136.418 100.6 137.155 100.399 137.787 99.998C138.437 99.5967 138.945 99.0426 139.308 98.3357C139.691 97.6097 139.882 96.7977 139.882 95.8997C139.882 94.9826 139.691 94.1801 139.308 93.4923C138.945 92.7854 138.437 92.2313 137.787 91.8301C137.155 91.4098 136.418 91.1996 135.576 91.1996C134.715 91.1996 133.959 91.4098 133.308 91.8301C132.657 92.2313 132.14 92.7854 131.757 93.4923C131.394 94.1801 131.212 94.9826 131.212 95.8997C131.212 96.7977 131.394 97.6097 131.757 98.3357C132.14 99.0426 132.657 99.5967 133.308 99.998C133.959 100.399 134.715 100.6 135.576 100.6Z" fill="#83838B"/>
<path d="M151.771 103.695V88.1044H155.302V91.7155L154.9 91.1136C155.187 89.9864 155.761 89.1457 156.623 88.5916C157.484 88.0375 158.498 87.7605 159.666 87.7605C160.948 87.7605 162.078 88.0948 163.054 88.7636C164.03 89.4323 164.661 90.3112 164.949 91.4002L163.886 91.4862C164.365 90.2443 165.083 89.3176 166.04 88.7062C166.997 88.0757 168.097 87.7605 169.341 87.7605C170.451 87.7605 171.437 88.0089 172.298 88.5056C173.179 89.0024 173.868 89.6998 174.365 90.5977C174.863 91.4766 175.112 92.4988 175.112 93.6643V103.695H171.351V94.5527C171.351 93.8649 171.226 93.2726 170.978 92.7758C170.729 92.2791 170.384 91.897 169.944 91.6295C169.504 91.3429 168.968 91.1996 168.336 91.1996C167.743 91.1996 167.217 91.3429 166.757 91.6295C166.298 91.897 165.944 92.2791 165.695 92.7758C165.446 93.2726 165.322 93.8649 165.322 94.5527V103.695H161.561V94.5527C161.561 93.8649 161.436 93.2726 161.188 92.7758C160.939 92.2791 160.585 91.897 160.125 91.6295C159.685 91.3429 159.159 91.1996 158.546 91.1996C157.953 91.1996 157.427 91.3429 156.967 91.6295C156.508 91.897 156.154 92.2791 155.905 92.7758C155.656 93.2726 155.532 93.8649 155.532 94.5527V103.695H151.771Z" fill="#83838B"/>
<path d="M185.931 104.039C184.399 104.039 183.002 103.685 181.739 102.979C180.495 102.272 179.5 101.307 178.753 100.084C178.026 98.8611 177.662 97.4664 177.662 95.8997C177.662 94.333 178.026 92.9382 178.753 91.7155C179.5 90.4927 180.495 89.5278 181.739 88.8209C182.983 88.114 184.38 87.7605 185.931 87.7605C187.462 87.7605 188.849 88.114 190.094 88.8209C191.338 89.5278 192.323 90.4927 193.051 91.7155C193.797 92.9191 194.17 94.3139 194.17 95.8997C194.17 97.4664 193.797 98.8611 193.051 100.084C192.304 101.307 191.309 102.272 190.065 102.979C188.821 103.685 187.443 104.039 185.931 104.039ZM185.931 100.6C186.773 100.6 187.51 100.399 188.141 99.998C188.792 99.5967 189.299 99.0426 189.663 98.3357C190.046 97.6097 190.237 96.7977 190.237 95.8997C190.237 94.9826 190.046 94.1801 189.663 93.4923C189.299 92.7854 188.792 92.2313 188.141 91.8301C187.51 91.4098 186.773 91.1996 185.931 91.1996C185.069 91.1996 184.313 91.4098 183.663 91.8301C183.012 92.2313 182.495 92.7854 182.112 93.4923C181.749 94.1801 181.567 94.9826 181.567 95.8997C181.567 96.7977 181.749 97.6097 182.112 98.3357C182.495 99.0426 183.012 99.5967 183.663 99.998C184.313 100.399 185.069 100.6 185.931 100.6Z" fill="#83838B"/>
<path d="M197.023 103.695V88.1044H200.554V91.5722L200.267 91.0563C200.63 89.8908 201.195 89.0788 201.961 88.6203C202.745 88.1617 203.683 87.9324 204.774 87.9324H205.693V91.2569H204.344C203.272 91.2569 202.41 91.5913 201.76 92.26C201.109 92.9096 200.784 93.8267 200.784 95.0113V103.695H197.023Z" fill="#83838B"/>
<path d="M215.168 104.039C213.56 104.039 212.153 103.676 210.948 102.95C209.742 102.224 208.804 101.24 208.134 99.998C207.464 98.7561 207.129 97.3804 207.129 95.871C207.129 94.3043 207.464 92.9191 208.134 91.7155C208.823 90.4927 209.751 89.5278 210.919 88.8209C212.106 88.114 213.426 87.7605 214.881 87.7605C216.106 87.7605 217.178 87.9611 218.096 88.3623C219.034 88.7636 219.829 89.3176 220.479 90.0246C221.13 90.7315 221.628 91.5435 221.972 92.4606C222.317 93.3586 222.489 94.333 222.489 95.3838C222.489 95.6513 222.47 95.9284 222.432 96.2149C222.412 96.5015 222.365 96.7499 222.288 96.9601H210.23V94.0942H220.164L218.383 95.4411C218.556 94.5623 218.508 93.7789 218.24 93.0911C217.991 92.4033 217.57 91.8588 216.977 91.4575C216.403 91.0563 215.704 90.8557 214.881 90.8557C214.096 90.8557 213.398 91.0563 212.785 91.4575C212.173 91.8396 211.704 92.4128 211.378 93.1771C211.072 93.9222 210.957 94.8298 211.034 95.8997C210.957 96.855 211.082 97.7052 211.407 98.4504C211.751 99.1764 212.249 99.74 212.9 100.141C213.57 100.542 214.335 100.743 215.197 100.743C216.058 100.743 216.785 100.562 217.379 100.199C217.991 99.8356 218.47 99.3483 218.814 98.7369L221.857 100.227C221.551 100.972 221.073 101.632 220.422 102.205C219.771 102.778 218.996 103.227 218.096 103.552C217.216 103.876 216.24 104.039 215.168 104.039Z" fill="#83838B"/>
<path d="M227.12 103.695V99.6827H230.91V103.695H227.12Z" fill="#83838B"/>
<path d="M245.399 103.695V85.783H239.858V82.3439H254.787V85.783H249.332V103.695H245.399Z" fill="#83838B"/>
<path d="M262.472 104.039C260.941 104.039 259.544 103.685 258.28 102.979C257.036 102.272 256.041 101.307 255.295 100.084C254.567 98.8611 254.204 97.4664 254.204 95.8997C254.204 94.333 254.567 92.9382 255.295 91.7155C256.041 90.4927 257.036 89.5278 258.28 88.8209C259.524 88.114 260.922 87.7605 262.472 87.7605C264.003 87.7605 265.391 88.114 266.635 88.8209C267.879 89.5278 268.865 90.4927 269.592 91.7155C270.339 92.9191 270.712 94.3139 270.712 95.8997C270.712 97.4664 270.339 98.8611 269.592 100.084C268.846 101.307 267.85 102.272 266.606 102.979C265.362 103.685 263.984 104.039 262.472 104.039ZM262.472 100.6C263.314 100.6 264.051 100.399 264.683 99.998C265.333 99.5967 265.841 99.0426 266.204 98.3357C266.587 97.6097 266.779 96.7977 266.779 95.8997C266.779 94.9826 266.587 94.1801 266.204 93.4923C265.841 92.7854 265.333 92.2313 264.683 91.8301C264.051 91.4098 263.314 91.1996 262.472 91.1996C261.611 91.1996 260.855 91.4098 260.204 91.8301C259.553 92.2313 259.036 92.7854 258.654 93.4923C258.29 94.1801 258.108 94.9826 258.108 95.8997C258.108 96.7977 258.29 97.6097 258.654 98.3357C259.036 99.0426 259.553 99.5967 260.204 99.998C260.855 100.399 261.611 100.6 262.472 100.6Z" fill="#83838B"/>
<path d="M281.143 110C279.976 110 278.894 109.809 277.899 109.427C276.904 109.045 276.043 108.51 275.315 107.822C274.607 107.153 274.09 106.36 273.765 105.443L277.268 104.125C277.497 104.851 277.947 105.434 278.617 105.873C279.306 106.332 280.148 106.561 281.143 106.561C281.909 106.561 282.579 106.418 283.153 106.131C283.746 105.844 284.206 105.424 284.531 104.87C284.857 104.335 285.019 103.685 285.019 102.921V99.3675L285.737 100.227C285.201 101.163 284.483 101.87 283.584 102.348C282.684 102.826 281.66 103.064 280.512 103.064C279.057 103.064 277.756 102.73 276.607 102.061C275.459 101.393 274.559 100.476 273.908 99.3101C273.258 98.1447 272.932 96.8359 272.932 95.3838C272.932 93.9127 273.258 92.6039 273.908 91.4575C274.559 90.3112 275.449 89.4132 276.578 88.7636C277.708 88.0948 278.99 87.7605 280.426 87.7605C281.593 87.7605 282.617 88.0089 283.498 88.5056C284.397 88.9833 285.144 89.6807 285.737 90.5977L285.22 91.5435V88.1044H288.78V102.921C288.78 104.278 288.445 105.491 287.775 106.561C287.125 107.631 286.225 108.472 285.077 109.083C283.947 109.694 282.636 110 281.143 110ZM280.971 99.5967C281.775 99.5967 282.474 99.4248 283.067 99.0809C283.679 98.7178 284.158 98.2211 284.502 97.5906C284.847 96.9601 285.019 96.2341 285.019 95.4125C285.019 94.61 284.837 93.8936 284.474 93.2631C284.129 92.6134 283.651 92.1071 283.038 91.7441C282.445 91.3811 281.756 91.1996 280.971 91.1996C280.186 91.1996 279.478 91.3811 278.847 91.7441C278.215 92.1071 277.717 92.6134 277.354 93.2631C277.009 93.8936 276.837 94.61 276.837 95.4125C276.837 96.2149 277.009 96.9314 277.354 97.5619C277.717 98.1924 278.205 98.6892 278.818 99.0522C279.449 99.4152 280.167 99.5967 280.971 99.5967Z" fill="#83838B"/>
<path d="M299.7 104.039C298.092 104.039 296.685 103.676 295.48 102.95C294.274 102.224 293.336 101.24 292.666 99.998C291.996 98.7561 291.661 97.3804 291.661 95.871C291.661 94.3043 291.996 92.9191 292.666 91.7155C293.355 90.4927 294.283 89.5278 295.451 88.8209C296.638 88.114 297.958 87.7605 299.413 87.7605C300.638 87.7605 301.71 87.9611 302.628 88.3623C303.566 88.7636 304.361 89.3176 305.011 90.0246C305.662 90.7315 306.16 91.5435 306.504 92.4606C306.849 93.3586 307.021 94.333 307.021 95.3838C307.021 95.6513 307.002 95.9284 306.964 96.2149C306.944 96.5015 306.897 96.7499 306.82 96.9601H294.762V94.0942H304.695L302.915 95.4411C303.088 94.5623 303.04 93.7789 302.772 93.0911C302.523 92.4033 302.102 91.8588 301.509 91.4575C300.934 91.0563 300.236 90.8557 299.413 90.8557C298.628 90.8557 297.929 91.0563 297.317 91.4575C296.705 91.8396 296.236 92.4128 295.91 93.1771C295.604 93.9222 295.489 94.8298 295.566 95.8997C295.489 96.855 295.614 97.7052 295.939 98.4504C296.283 99.1764 296.781 99.74 297.432 100.141C298.102 100.542 298.867 100.743 299.729 100.743C300.59 100.743 301.317 100.562 301.911 100.199C302.523 99.8356 303.002 99.3483 303.346 98.7369L306.389 100.227C306.083 100.972 305.605 101.632 304.954 102.205C304.303 102.778 303.528 103.227 302.628 103.552C301.748 103.876 300.772 104.039 299.7 104.039Z" fill="#83838B"/>
<path d="M316.992 103.867C315.231 103.867 313.863 103.389 312.887 102.434C311.93 101.46 311.451 100.093 311.451 98.3357V91.4575H308.752V88.1044H309.039C309.805 88.1044 310.398 87.9038 310.819 87.5026C311.241 87.1013 311.451 86.5186 311.451 85.7543V84.5507H315.212V88.1044H318.801V91.4575H315.212V98.1351C315.212 98.651 315.298 99.0904 315.47 99.4534C315.662 99.8164 315.949 100.093 316.332 100.285C316.734 100.476 317.241 100.571 317.853 100.571C317.987 100.571 318.141 100.562 318.313 100.542C318.504 100.523 318.686 100.504 318.858 100.485V103.695C318.59 103.733 318.284 103.771 317.94 103.81C317.595 103.848 317.279 103.867 316.992 103.867Z" fill="#83838B"/>
<path d="M321.732 103.695V82H325.493V91.1709L324.976 90.6264C325.34 89.6902 325.933 88.9833 326.756 88.5056C327.598 88.0089 328.574 87.7605 329.684 87.7605C330.833 87.7605 331.847 88.0089 332.728 88.5056C333.627 89.0024 334.326 89.6998 334.824 90.5977C335.321 91.4766 335.57 92.4988 335.57 93.6643V103.695H331.809V94.5527C331.809 93.8649 331.675 93.2726 331.407 92.7758C331.139 92.2791 330.766 91.897 330.287 91.6295C329.828 91.3429 329.283 91.1996 328.651 91.1996C328.038 91.1996 327.493 91.3429 327.014 91.6295C326.536 91.897 326.163 92.2791 325.895 92.7758C325.627 93.2726 325.493 93.8649 325.493 94.5527V103.695H321.732Z" fill="#83838B"/>
<path d="M346.157 104.039C344.55 104.039 343.143 103.676 341.937 102.95C340.731 102.224 339.793 101.24 339.124 99.998C338.454 98.7561 338.119 97.3804 338.119 95.871C338.119 94.3043 338.454 92.9191 339.124 91.7155C339.813 90.4927 340.741 89.5278 341.908 88.8209C343.095 88.114 344.416 87.7605 345.87 87.7605C347.095 87.7605 348.167 87.9611 349.086 88.3623C350.024 88.7636 350.818 89.3176 351.469 90.0246C352.12 90.7315 352.617 91.5435 352.962 92.4606C353.306 93.3586 353.479 94.333 353.479 95.3838C353.479 95.6513 353.459 95.9284 353.421 96.2149C353.402 96.5015 353.354 96.7499 353.278 96.9601H341.219V94.0942H351.153L349.373 95.4411C349.545 94.5623 349.497 93.7789 349.229 93.0911C348.981 92.4033 348.56 91.8588 347.966 91.4575C347.392 91.0563 346.693 90.8557 345.87 90.8557C345.086 90.8557 344.387 91.0563 343.775 91.4575C343.162 91.8396 342.693 92.4128 342.368 93.1771C342.061 93.9222 341.947 94.8298 342.023 95.8997C341.947 96.855 342.071 97.7052 342.396 98.4504C342.741 99.1764 343.239 99.74 343.889 100.141C344.559 100.542 345.325 100.743 346.186 100.743C347.047 100.743 347.775 100.562 348.368 100.199C348.981 99.8356 349.459 99.3483 349.804 98.7369L352.847 100.227C352.541 100.972 352.062 101.632 351.411 102.205C350.761 102.778 349.985 103.227 349.086 103.552C348.205 103.876 347.229 104.039 346.157 104.039Z" fill="#83838B"/>
<path d="M356.33 103.695V88.1044H359.861V91.5722L359.574 91.0563C359.937 89.8908 360.502 89.0788 361.268 88.6203C362.052 88.1617 362.99 87.9324 364.081 87.9324H365V91.2569H363.651C362.579 91.2569 361.717 91.5913 361.067 92.26C360.416 92.9096 360.091 93.8267 360.091 95.0113V103.695H356.33Z" fill="#83838B"/>
<defs>
<clipPath id="clip0_260_9698">
<rect width="364.789" height="58" fill="white"/>
</clipPath>
</defs>
</svg>
