<svg width="33" height="33" viewBox="0 0 33 33" fill="none" xmlns="http://www.w3.org/2000/svg">
<path d="M28.0577 0.320557H5.02293C2.24982 0.320557 0 2.56455 0 5.33303V28.2178C0 30.3854 1.68986 32.2311 3.86302 32.3108C6.14284 32.3904 8.01602 30.5713 8.01602 28.3141V16.5364C8.01602 11.9986 11.7024 8.3206 16.2487 8.3206H28.0544C30.2676 8.3206 32.0641 6.53138 32.0641 4.32058C32.0641 2.1131 30.2709 0.320557 28.0544 0.320557H28.0577Z" fill="black"/>
<path d="M29.619 12.6897H16.4734C14.2435 12.6897 12.437 14.4922 12.437 16.7163V29.7819C12.437 31.0268 13.3336 32.1355 14.5735 32.2915C16.0701 32.4807 17.3466 31.3189 17.3466 29.8616V25.8848C17.3466 21.3072 21.0663 17.5927 25.6559 17.5927H29.619C30.9789 17.5927 32.0788 16.4972 32.0788 15.1428V15.1362C32.0788 13.7818 30.9789 12.6864 29.619 12.6864V12.6897Z" fill="black"/>
<path d="M27.6267 22.0698H28.48C30.4498 22.0698 32.0463 23.6599 32.0463 25.6217V28.4499C32.0463 30.5844 30.3065 32.3205 28.16 32.3205H25.3369C23.367 32.3205 21.7705 30.7305 21.7705 28.7686V27.9022C21.7705 24.6823 24.3936 22.0698 27.6267 22.0698Z" fill="black"/>
</svg>
