<svg width="218" height="192" viewBox="0 0 218 192" fill="none" xmlns="http://www.w3.org/2000/svg">
<path d="M131.087 136.81L102.945 163.636C89.0114 176.914 66.8635 176.049 54.0071 161.737L44.9414 151.638L103.527 114.473L131.095 136.817L131.087 136.81Z" fill="#A0AFC1"/>
<path d="M126.511 139.989C115.873 135.121 107.819 125.954 104.37 114.763L166.549 72.4761L177.849 92.9867L126.511 139.981V139.989Z" fill="white"/>
<path d="M166.295 73.5392L176.932 92.8493L126.38 139.131C116.31 134.38 108.656 125.678 105.229 115.07L166.303 73.5392M166.797 71.4365L103.512 114.473L103.635 114.873C107.171 126.464 115.568 135.944 126.642 140.855L178.751 93.1476L166.79 71.4292L166.797 71.4365Z" fill="#080717"/>
<path d="M52.8502 109.497L33.5476 111.825C20.2837 113.426 9.20248 122.666 5.25169 135.428L0.740524 155.393C-3.19571 172.79 9.00607 189.699 26.7591 191.445C37.2218 192.478 47.4443 187.894 53.6361 179.396L74.1104 151.304L52.8502 109.497Z" fill="#A0AFC1"/>
<path d="M62.1341 100.313L54.3492 102.197C45.3999 104.365 36.3049 98.8138 34.1367 89.8645L33.3874 86.7795C30.6735 75.5747 37.6221 64.188 48.8269 61.4741L50.4274 64.3554C57.4486 62.6528 64.5864 67.011 66.289 74.0322L69.6647 87.9655C70.9889 93.4296 67.5983 98.9884 62.1341 100.313Z" fill="#080717"/>
<path d="M38.7862 111.751L44.5341 111.503L50.9807 82.9019L71.4768 87.311L67.1695 110.514L73.3394 110.245C73.5795 110.95 73.7103 111.678 73.7103 112.427C73.7103 118.306 65.8817 123.065 56.2266 123.057C46.5716 123.057 38.75 118.284 38.75 112.405C38.75 112.18 38.7644 111.962 38.7862 111.743V111.751Z" fill="white" stroke="#080717" stroke-width="2" stroke-linecap="round" stroke-linejoin="round"/>
<path d="M54.3415 66.8008C55.3673 71.0499 52.7626 75.3353 48.5062 76.3612C44.2571 77.3871 39.9719 74.7824 38.946 70.526C37.9201 66.2769 40.5249 61.9914 44.7812 60.9655C49.0303 59.9396 53.3156 62.5444 54.3415 66.8008Z" fill="#080717"/>
<path d="M47.1312 64.413C39.0623 67.4835 34.2673 76.018 36.0281 84.6254C38.2109 85.4184 40.6703 85.6003 43.1295 85.0037C49.5323 83.4539 53.5265 77.2622 52.0495 71.165C51.3438 68.262 49.5323 65.9119 47.1312 64.4058V64.413Z" fill="#080717"/>
<path d="M37.2432 76.412C34.5803 84.6264 38.2182 93.7067 46.0325 97.7375C48.0188 96.537 49.6995 94.7326 50.7764 92.4407C53.5848 86.4818 51.2639 79.4897 45.5888 76.8195C42.8894 75.5462 39.9136 75.488 37.2361 76.4193L37.2432 76.412Z" fill="#080717"/>
<path d="M59.5947 67.0254C60.6206 71.2745 58.0159 75.5599 53.7595 76.5858C49.5104 77.6117 45.2248 75.007 44.1989 70.7506C43.173 66.5015 45.7778 62.216 50.0342 61.1901C54.2833 60.1642 58.5688 62.769 59.5947 67.0254Z" fill="#080717"/>
<path d="M68.66 65.2358C69.715 69.6086 67.0303 74.0105 62.6575 75.0655C58.2847 76.1205 53.883 73.4357 52.828 69.0629C51.773 64.6901 54.4578 60.2882 58.8305 59.2332C63.2033 58.1782 67.605 60.863 68.66 65.2358Z" fill="#080717"/>
<path d="M59.7258 64.0638C60.7808 68.4366 58.096 72.8385 53.7233 73.8935C49.3505 74.9558 44.9484 72.2637 43.8934 67.8909C42.8384 63.5182 45.5232 59.1163 49.896 58.0613C54.2688 56.999 58.6708 59.691 59.7258 64.0638Z" fill="#080717"/>
<path d="M32.041 76.2146C32.041 76.2146 34.5732 74.6358 36.7923 75.9818" stroke="#080717" stroke-width="2" stroke-linecap="round" stroke-linejoin="round"/>
<path d="M32.5361 73.7261C32.5361 73.7261 34.3478 76.0907 36.9016 75.6178" stroke="#080717" stroke-width="2" stroke-linecap="round" stroke-linejoin="round"/>
<path d="M72.0287 74.149C65.8369 64.3193 54.0866 60.5868 45.7848 65.8182C38.7636 70.2419 36.4573 79.6496 39.6586 88.3951C39.4622 88.4388 39.2728 88.4897 39.0763 88.5552C36.1515 89.552 34.3836 92.6806 35.0384 95.7001C35.7805 99.0979 39.1564 101.201 42.5178 100.386C43.9948 100.029 45.2101 99.1561 46.0396 98.0138C52.5005 104.009 61.486 105.653 68.2089 101.419C76.5106 96.1876 78.2204 83.9787 72.0287 74.149Z" fill="white" stroke="#080717" stroke-width="2" stroke-linecap="round" stroke-linejoin="round"/>
<path d="M41.0121 80.1738L47.4876 90.52C47.6913 90.8474 47.7278 91.2476 47.5895 91.6041C47.3131 92.3026 46.4762 92.5864 45.8359 92.1935L39.6152 88.3955L41.0121 80.1665V80.1738Z" fill="#080717"/>
<path d="M43.3621 93.6618C43.3621 93.6618 42.2853 91.4354 40.1025 91.188" stroke="#080717" stroke-width="2" stroke-linecap="round" stroke-linejoin="round"/>
<path d="M34.8643 72.854C32.8561 77.0522 32.2231 81.9343 33.3945 86.78L33.9548 89.101C34.8134 89.1737 35.6938 89.1228 36.5742 88.9045C40.947 87.8495 43.6318 83.4404 42.5768 79.0749C41.6891 75.4151 38.4586 72.9486 34.8643 72.854Z" fill="#080717"/>
<path d="M3.95605 161.932L29.2688 143.356" stroke="black" stroke-width="2" stroke-linecap="round" stroke-linejoin="round"/>
<path d="M60.5986 86.1916C60.5986 86.1916 68.3838 96.1231 67.3142 84.8237" stroke="#080717" stroke-width="2" stroke-linecap="round" stroke-linejoin="round"/>
<path d="M52.1293 83.5424C48.7169 80.9449 47.8658 64.6616 58.4448 80.1955" stroke="#080717" stroke-width="2" stroke-linecap="round" stroke-linejoin="round"/>
<path d="M65.3566 75.9033C65.3566 75.9033 59.6015 59.3362 70.3552 71.8215" stroke="#080717" stroke-width="2" stroke-linecap="round" stroke-linejoin="round"/>
<path d="M49.4006 69.2383C49.4006 69.2383 47.0507 70.2133 46.665 72.4397" stroke="#080717" stroke-width="2" stroke-linecap="round" stroke-linejoin="round"/>
<path d="M62.0028 64.3196C62.0028 64.3196 59.4853 63.9558 58.0156 65.6802" stroke="#080717" stroke-width="2" stroke-linecap="round" stroke-linejoin="round"/>
<path d="M184.804 13.5849C157.12 -10.4327 125.092 -1.75988 113.283 32.9532C101.496 67.6881 114.433 115.338 142.081 139.362C169.809 163.395 201.837 154.751 213.624 120.009C225.433 85.2884 212.511 37.6388 184.812 13.5922L184.804 13.5849Z" fill="white"/>
<path d="M175.68 40.4843C159.833 26.7402 141.498 31.7024 134.739 51.5727C127.994 71.4576 135.394 98.7347 151.226 112.486C167.095 126.245 185.43 121.297 192.175 101.405C198.934 81.5274 191.534 54.2502 175.68 40.4916V40.4843ZM183.16 93.5835C178.532 107.233 165.952 110.623 155.06 101.187C144.198 91.7499 139.119 73.0292 143.747 59.387C148.389 45.752 160.968 42.3469 171.846 51.7764C182.723 61.2205 187.802 79.9412 183.167 93.5762L183.16 93.5835Z" fill="#6E46C9"/>
<path d="M184.804 13.5839C157.12 -10.4337 125.092 -1.76086 113.283 32.9522C101.496 67.6871 114.433 115.337 142.081 139.361C169.809 163.394 201.837 154.75 213.624 120.008C225.433 85.2874 212.511 37.6379 184.812 13.5912L184.804 13.5839ZM202.929 110.731C193.652 138.066 168.456 144.869 146.635 125.959C124.873 107.057 114.701 69.5643 123.978 42.2362C133.277 14.9299 158.473 8.1052 180.257 27.0006C202.048 45.9178 212.213 83.4102 202.929 110.731Z" fill="#6E46C9"/>
<path d="M167.27 65.2581C162.322 60.9727 156.611 62.5152 154.501 68.7142C152.398 74.9132 154.705 83.4187 159.638 87.7114C164.592 92.0042 170.304 90.4544 172.407 84.2554C174.517 78.0564 172.21 69.5509 167.263 65.2581H167.27Z" fill="#6E46C9"/>
<path d="M96.5053 52.2198L108.823 46.9521C109.646 46.6028 110.606 46.7775 111.261 47.4468C111.69 47.8834 111.887 48.5018 111.872 49.113C111.821 51.0484 110.846 52.831 109.238 53.9151L104.851 56.8691L104.647 58.9209L109.173 54.1843C109.245 54.1333 109.311 54.0824 109.376 54.0388L119.133 49.4113C119.643 49.1712 120.224 49.0985 120.763 49.2731C121.476 49.5132 121.993 50.0952 122.146 50.8156C122.451 52.2416 122.145 53.755 121.323 54.9555L121.127 55.2465L126.336 53.8641C126.664 53.7768 126.991 53.9369 127.144 54.2352C127.653 55.2538 127.988 57.3638 126.525 59.3792C126.998 59.5757 127.42 59.9249 127.493 60.8053C127.515 61.0308 127.493 61.2637 127.428 61.482C126.853 63.5192 125.441 65.1999 123.528 66.1167L118.835 68.3576L112.97 76.7976L115.954 89.4649C117.205 94.769 116.114 100.364 112.956 104.81L66.8633 161.11C66.7324 161.292 66.9946 161.001 66.7763 161.008C66.5653 161.008 66.5578 160.754 66.4196 160.594C66.4196 160.594 66.405 160.579 66.405 160.572L61.5304 162.238C50.02 166.181 37.3964 160.805 32.2597 149.774L29.262 143.343C29.051 143.073 28.6072 143.088 28.8328 142.833L96.2651 87.2385L96.0907 52.8673C96.0907 52.5836 96.2577 52.3289 96.5124 52.2198H96.5053Z" fill="white"/>
<path d="M103.723 61.0012L104.181 56.4684L108.845 53.3325C110.3 52.3575 111.173 50.7204 111.173 48.9742C111.173 47.9047 110.082 47.1844 109.1 47.6064L96.7815 52.8741L96.9563 87.5071L29.2764 143.364C29.2764 143.364 38.0291 173.115 66.4194 160.586L112.381 104.402C115.422 100.116 116.47 94.7393 115.27 89.6244L112.214 76.6588L118.362 67.8114L123.222 65.4904C125.012 64.6391 126.322 63.0239 126.802 61.1031C126.976 60.4119 126.343 59.7934 125.652 59.9826L113.465 63.3367L105.738 72.4534" stroke="#080717" stroke-width="2" stroke-linecap="round" stroke-linejoin="round"/>
<path d="M100.34 64.4287L109.675 54.6645L119.519 49.9934C120.326 49.6151 121.272 50.0808 121.461 50.9539C121.731 52.198 121.469 53.5004 120.748 54.5554L119.788 55.9524" stroke="#080717" stroke-width="2" stroke-linecap="round" stroke-linejoin="round"/>
<path d="M102.93 68.5257L111.799 58.4341L126.503 54.5415C126.503 54.5415 128.104 57.6847 124.59 60.3185" stroke="#080717" stroke-width="2" stroke-linecap="round" stroke-linejoin="round"/>
<path d="M206.087 34.9329L207.2 39.313L209.39 35.7478C210.234 34.3727 210.554 32.7356 210.292 31.1349C210.059 29.7162 209.375 29.1268 207.44 28.5447L197.305 25.8745L197.45 28.0573C197.552 29.6143 198.461 30.9967 199.844 31.7097L206.072 34.9329H206.087Z" fill="white" stroke="#080717" stroke-width="2" stroke-linecap="round" stroke-linejoin="round"/>
<path d="M206.705 41.191L208.029 46.3933L210.634 42.1587C211.638 40.5217 212.024 38.579 211.704 36.6873C211.427 34.9993 210.023 33.726 208.321 33.6096L193.732 32.3945L194.431 35.8651C194.795 37.6622 196.177 39.081 197.96 39.4812L206.705 41.191Z" fill="white" stroke="#080717" stroke-width="2" stroke-linecap="round" stroke-linejoin="round"/>
<path d="M208.445 48.0305L209.769 53.2327L212.374 48.9982C213.378 47.3611 213.764 45.4184 213.444 43.5267C213.167 41.8387 211.763 40.5655 210.06 40.449L196.724 39.394L197.422 42.8646C197.786 44.6617 199.168 46.0805 200.951 46.4807L208.445 48.0377V48.0305Z" fill="white" stroke="#080717" stroke-width="2" stroke-linecap="round" stroke-linejoin="round"/>
<path d="M210.103 54.5347L211.427 59.7369L214.032 55.5024C215.036 53.8653 215.421 51.9226 215.101 50.0309C214.825 48.3429 213.421 47.0696 211.718 46.9532L200.179 46.1602L200.877 49.6307C201.241 51.4279 202.623 52.8467 204.406 53.2468L210.103 54.5347Z" fill="white" stroke="#080717" stroke-width="2" stroke-linecap="round" stroke-linejoin="round"/>
</svg>
