<svg width="90" height="91" viewBox="0 0 90 91" fill="none" xmlns="http://www.w3.org/2000/svg">
<rect y="0.5" width="90" height="90" rx="24" fill="#6E46C9"/>
<g clip-path="url(#clip0_257_5280)">
<path d="M43.7967 64.5001C43.278 64.4982 42.7659 64.3837 42.2957 64.1644C41.5278 63.8225 40.9111 63.212 40.5613 62.4477C40.2115 61.6833 40.1526 60.8176 40.3957 60.0129L42.8673 51.8334H37.0438C36.3019 51.8343 35.57 51.6614 34.907 51.3285C34.2439 50.9956 33.668 50.512 33.2255 49.9165C32.7829 49.321 32.4861 48.6301 32.3587 47.8992C32.2312 47.1682 32.2768 46.4176 32.4917 45.7075L37.2797 29.8742C37.5716 28.8948 38.1732 28.0366 38.9942 27.4282C39.8153 26.8198 40.8115 26.4942 41.8334 26.5001H47.6806C48.3453 26.5006 48.9999 26.6621 49.5885 26.9707C50.1771 27.2792 50.6823 27.7257 51.0609 28.272C51.4394 28.8183 51.6801 29.4481 51.7623 30.1076C51.8445 30.7671 51.7658 31.4367 51.5329 32.0592L48.8681 39.1667H52.9167C53.7797 39.1667 54.6264 39.4017 55.3659 39.8466C56.1054 40.2916 56.7097 40.9295 57.1139 41.692C57.5181 42.4545 57.7069 43.3127 57.6601 44.1744C57.6133 45.0362 57.3326 45.8689 56.8482 46.5831L46.7148 62.8914C46.4016 63.382 45.9704 63.7863 45.4606 64.0673C44.9508 64.3483 44.3788 64.4971 43.7967 64.5001Z" fill="white"/>
</g>
<defs>
<clipPath id="clip0_257_5280">
<rect width="38" height="38" fill="white" transform="translate(26 26.5)"/>
</clipPath>
</defs>
</svg>
